<svg xmlns="http://www.w3.org/2000/svg" xmlns:xlink="http://www.w3.org/1999/xlink" width="500" zoomAndPan="magnify" viewBox="0 0 375 112.499997" height="150" preserveAspectRatio="xMidYMid meet" version="1.0"><defs><g/><clipPath id="f2b0dac9f7"><path d="M 36.835938 7.027344 L 134.78125 7.027344 L 134.78125 104.972656 L 36.835938 104.972656 Z M 36.835938 7.027344 " clip-rule="nonzero"/></clipPath></defs><g clip-path="url(#f2b0dac9f7)"><path fill="#d9d9d9" d="M 85.808594 7.027344 C 84.207031 7.027344 82.605469 7.109375 81.007812 7.265625 C 79.414062 7.421875 77.828125 7.65625 76.253906 7.96875 C 74.683594 8.28125 73.128906 8.671875 71.59375 9.136719 C 70.058594 9.601562 68.550781 10.144531 67.070312 10.757812 C 65.585938 11.371094 64.140625 12.054688 62.722656 12.8125 C 61.308594 13.566406 59.9375 14.390625 58.601562 15.28125 C 57.269531 16.171875 55.980469 17.128906 54.742188 18.144531 C 53.503906 19.164062 52.316406 20.238281 51.179688 21.371094 C 50.046875 22.507812 48.972656 23.695312 47.953125 24.933594 C 46.9375 26.171875 45.980469 27.460938 45.089844 28.792969 C 44.199219 30.128906 43.375 31.5 42.621094 32.914062 C 41.863281 34.332031 41.179688 35.777344 40.566406 37.261719 C 39.953125 38.742188 39.410156 40.25 38.945312 41.785156 C 38.480469 43.320312 38.089844 44.875 37.777344 46.445312 C 37.464844 48.019531 37.230469 49.605469 37.074219 51.199219 C 36.917969 52.796875 36.835938 54.398438 36.835938 56 C 36.835938 57.605469 36.917969 59.203125 37.074219 60.800781 C 37.230469 62.398438 37.464844 63.980469 37.777344 65.554688 C 38.089844 67.128906 38.480469 68.683594 38.945312 70.21875 C 39.410156 71.75 39.953125 73.261719 40.566406 74.742188 C 41.179688 76.222656 41.863281 77.671875 42.621094 79.085938 C 43.375 80.5 44.199219 81.875 45.089844 83.207031 C 45.980469 84.542969 46.9375 85.828125 47.953125 87.070312 C 48.972656 88.308594 50.046875 89.496094 51.179688 90.628906 C 52.316406 91.765625 53.503906 92.839844 54.742188 93.855469 C 55.980469 94.875 57.269531 95.828125 58.601562 96.71875 C 59.9375 97.609375 61.308594 98.433594 62.722656 99.191406 C 64.140625 99.945312 65.585938 100.632812 67.070312 101.246094 C 68.550781 101.859375 70.058594 102.398438 71.59375 102.863281 C 73.128906 103.332031 74.683594 103.71875 76.253906 104.03125 C 77.828125 104.34375 79.414062 104.582031 81.007812 104.738281 C 82.605469 104.894531 84.207031 104.972656 85.808594 104.972656 C 87.414062 104.972656 89.011719 104.894531 90.609375 104.738281 C 92.207031 104.582031 93.789062 104.34375 95.363281 104.03125 C 96.9375 103.71875 98.492188 103.332031 100.027344 102.863281 C 101.558594 102.398438 103.070312 101.859375 104.550781 101.246094 C 106.03125 100.632812 107.480469 99.945312 108.894531 99.191406 C 110.308594 98.433594 111.683594 97.609375 113.015625 96.71875 C 114.351562 95.828125 115.636719 94.875 116.878906 93.855469 C 118.117188 92.839844 119.304688 91.765625 120.4375 90.628906 C 121.574219 89.496094 122.648438 88.308594 123.664062 87.070312 C 124.683594 85.828125 125.636719 84.542969 126.527344 83.207031 C 127.417969 81.875 128.242188 80.5 129 79.085938 C 129.753906 77.671875 130.441406 76.222656 131.054688 74.742188 C 131.667969 73.261719 132.207031 71.75 132.671875 70.21875 C 133.140625 68.683594 133.527344 67.128906 133.839844 65.554688 C 134.152344 63.980469 134.390625 62.398438 134.546875 60.800781 C 134.703125 59.203125 134.78125 57.605469 134.78125 56 C 134.78125 54.398438 134.703125 52.796875 134.546875 51.203125 C 134.386719 49.605469 134.152344 48.019531 133.839844 46.449219 C 133.527344 44.875 133.136719 43.320312 132.671875 41.785156 C 132.207031 40.25 131.667969 38.742188 131.050781 37.261719 C 130.4375 35.78125 129.753906 34.332031 128.996094 32.917969 C 128.242188 31.503906 127.417969 30.128906 126.527344 28.796875 C 125.636719 27.460938 124.679688 26.175781 123.664062 24.933594 C 122.644531 23.695312 121.570312 22.507812 120.4375 21.375 C 119.300781 20.242188 118.117188 19.164062 116.875 18.148438 C 115.636719 17.128906 114.347656 16.175781 113.015625 15.285156 C 111.683594 14.394531 110.308594 13.570312 108.894531 12.8125 C 107.480469 12.058594 106.03125 11.371094 104.550781 10.757812 C 103.066406 10.144531 101.558594 9.605469 100.023438 9.140625 C 98.488281 8.671875 96.9375 8.285156 95.363281 7.972656 C 93.789062 7.65625 92.207031 7.421875 90.609375 7.265625 C 89.011719 7.109375 87.414062 7.027344 85.808594 7.027344 Z M 73.460938 84.421875 L 55.203125 84.421875 L 55.203125 47.90625 C 55.203125 47.476562 55.285156 47.066406 55.449219 46.667969 C 55.613281 46.273438 55.84375 45.925781 56.148438 45.621094 C 56.449219 45.320312 56.800781 45.085938 57.195312 44.921875 C 57.589844 44.757812 58.003906 44.675781 58.429688 44.675781 L 70.230469 44.675781 C 70.660156 44.675781 71.070312 44.757812 71.464844 44.921875 C 71.863281 45.085938 72.210938 45.320312 72.511719 45.621094 C 72.816406 45.925781 73.050781 46.273438 73.214844 46.667969 C 73.378906 47.066406 73.460938 47.476562 73.460938 47.90625 Z M 94.929688 84.421875 L 76.6875 84.421875 L 76.6875 30.8125 C 76.6875 30.382812 76.765625 29.972656 76.929688 29.578125 C 77.09375 29.179688 77.324219 28.832031 77.625 28.53125 C 77.925781 28.226562 78.273438 27.992188 78.667969 27.828125 C 79.0625 27.664062 79.476562 27.582031 79.902344 27.582031 L 91.71875 27.582031 C 92.144531 27.582031 92.554688 27.664062 92.949219 27.828125 C 93.34375 27.992188 93.691406 28.226562 93.992188 28.53125 C 94.296875 28.832031 94.527344 29.179688 94.691406 29.578125 C 94.851562 29.972656 94.933594 30.382812 94.929688 30.8125 Z M 116.417969 84.421875 L 98.160156 84.421875 L 98.160156 39.304688 C 98.160156 38.878906 98.242188 38.464844 98.40625 38.070312 C 98.570312 37.675781 98.804688 37.328125 99.109375 37.027344 C 99.410156 36.726562 99.757812 36.496094 100.15625 36.332031 C 100.550781 36.167969 100.960938 36.089844 101.390625 36.089844 L 113.1875 36.089844 C 113.617188 36.089844 114.027344 36.167969 114.421875 36.332031 C 114.816406 36.496094 115.167969 36.726562 115.46875 37.027344 C 115.773438 37.328125 116.007812 37.675781 116.171875 38.070312 C 116.335938 38.464844 116.417969 38.878906 116.417969 39.304688 Z M 116.417969 84.421875 " fill-opacity="1" fill-rule="nonzero"/></g><g fill="#d9d9d9" fill-opacity="1"><g transform="translate(138.984368, 54.035142)"><g><path d="M 8.09375 -24.390625 L 8.09375 0 L 2.15625 0 L 2.15625 -24.390625 Z M 8.09375 -24.390625 "/></g></g></g><g fill="#d9d9d9" fill-opacity="1"><g transform="translate(149.235275, 54.035142)"><g><path d="M 13.96875 -19.59375 C 16.238281 -19.59375 18.050781 -18.859375 19.40625 -17.390625 C 20.757812 -15.921875 21.4375 -13.898438 21.4375 -11.328125 L 21.4375 0 L 15.53125 0 L 15.53125 -10.53125 C 15.53125 -11.820312 15.191406 -12.828125 14.515625 -13.546875 C 13.847656 -14.265625 12.945312 -14.625 11.8125 -14.625 C 10.675781 -14.625 9.769531 -14.265625 9.09375 -13.546875 C 8.425781 -12.828125 8.09375 -11.820312 8.09375 -10.53125 L 8.09375 0 L 2.15625 0 L 2.15625 -19.390625 L 8.09375 -19.390625 L 8.09375 -16.8125 C 8.695312 -17.675781 9.507812 -18.351562 10.53125 -18.84375 C 11.550781 -19.34375 12.695312 -19.59375 13.96875 -19.59375 Z M 13.96875 -19.59375 "/></g></g></g><g fill="#d9d9d9" fill-opacity="1"><g transform="translate(172.655996, 54.035142)"><g><path d="M 10.046875 0.28125 C 8.347656 0.28125 6.835938 -0.00390625 5.515625 -0.578125 C 4.203125 -1.160156 3.160156 -1.957031 2.390625 -2.96875 C 1.628906 -3.976562 1.203125 -5.109375 1.109375 -6.359375 L 6.984375 -6.359375 C 7.054688 -5.679688 7.367188 -5.132812 7.921875 -4.71875 C 8.472656 -4.300781 9.15625 -4.09375 9.96875 -4.09375 C 10.707031 -4.09375 11.28125 -4.238281 11.6875 -4.53125 C 12.09375 -4.820312 12.296875 -5.203125 12.296875 -5.671875 C 12.296875 -6.222656 12.003906 -6.628906 11.421875 -6.890625 C 10.847656 -7.160156 9.914062 -7.457031 8.625 -7.78125 C 7.226562 -8.101562 6.066406 -8.441406 5.140625 -8.796875 C 4.210938 -9.160156 3.410156 -9.726562 2.734375 -10.5 C 2.066406 -11.28125 1.734375 -12.332031 1.734375 -13.65625 C 1.734375 -14.769531 2.039062 -15.78125 2.65625 -16.6875 C 3.269531 -17.601562 4.171875 -18.328125 5.359375 -18.859375 C 6.554688 -19.398438 7.976562 -19.671875 9.625 -19.671875 C 12.0625 -19.671875 13.976562 -19.066406 15.375 -17.859375 C 16.78125 -16.648438 17.585938 -15.050781 17.796875 -13.0625 L 12.296875 -13.0625 C 12.203125 -13.738281 11.90625 -14.269531 11.40625 -14.65625 C 10.914062 -15.050781 10.265625 -15.25 9.453125 -15.25 C 8.753906 -15.25 8.21875 -15.113281 7.84375 -14.84375 C 7.476562 -14.582031 7.296875 -14.222656 7.296875 -13.765625 C 7.296875 -13.203125 7.585938 -12.78125 8.171875 -12.5 C 8.765625 -12.226562 9.691406 -11.953125 10.953125 -11.671875 C 12.378906 -11.304688 13.546875 -10.941406 14.453125 -10.578125 C 15.359375 -10.222656 16.148438 -9.644531 16.828125 -8.84375 C 17.515625 -8.039062 17.867188 -6.96875 17.890625 -5.625 C 17.890625 -4.488281 17.570312 -3.472656 16.9375 -2.578125 C 16.300781 -1.691406 15.382812 -0.992188 14.1875 -0.484375 C 13 0.0234375 11.617188 0.28125 10.046875 0.28125 Z M 10.046875 0.28125 "/></g></g></g><g fill="#d9d9d9" fill-opacity="1"><g transform="translate(192.04585, 54.035142)"><g><path d="M 5.140625 -21.40625 C 4.097656 -21.40625 3.242188 -21.710938 2.578125 -22.328125 C 1.921875 -22.941406 1.59375 -23.703125 1.59375 -24.609375 C 1.59375 -25.535156 1.921875 -26.300781 2.578125 -26.90625 C 3.242188 -27.519531 4.097656 -27.828125 5.140625 -27.828125 C 6.160156 -27.828125 7 -27.519531 7.65625 -26.90625 C 8.320312 -26.300781 8.65625 -25.535156 8.65625 -24.609375 C 8.65625 -23.703125 8.320312 -22.941406 7.65625 -22.328125 C 7 -21.710938 6.160156 -21.40625 5.140625 -21.40625 Z M 8.09375 -19.390625 L 8.09375 0 L 2.15625 0 L 2.15625 -19.390625 Z M 8.09375 -19.390625 "/></g></g></g><g fill="#d9d9d9" fill-opacity="1"><g transform="translate(202.296761, 54.035142)"><g><path d="M 9.515625 -19.671875 C 10.890625 -19.671875 12.09375 -19.390625 13.125 -18.828125 C 14.15625 -18.273438 14.945312 -17.546875 15.5 -16.640625 L 15.5 -19.390625 L 21.4375 -19.390625 L 21.4375 -0.03125 C 21.4375 1.75 21.082031 3.363281 20.375 4.8125 C 19.675781 6.257812 18.601562 7.410156 17.15625 8.265625 C 15.707031 9.128906 13.90625 9.5625 11.75 9.5625 C 8.875 9.5625 6.539062 8.878906 4.75 7.515625 C 2.96875 6.160156 1.953125 4.328125 1.703125 2.015625 L 7.578125 2.015625 C 7.765625 2.753906 8.203125 3.335938 8.890625 3.765625 C 9.585938 4.191406 10.445312 4.40625 11.46875 4.40625 C 12.695312 4.40625 13.675781 4.050781 14.40625 3.34375 C 15.132812 2.644531 15.5 1.519531 15.5 -0.03125 L 15.5 -2.78125 C 14.914062 -1.875 14.113281 -1.132812 13.09375 -0.5625 C 12.082031 0 10.890625 0.28125 9.515625 0.28125 C 7.921875 0.28125 6.472656 -0.128906 5.171875 -0.953125 C 3.878906 -1.773438 2.851562 -2.941406 2.09375 -4.453125 C 1.34375 -5.972656 0.96875 -7.734375 0.96875 -9.734375 C 0.96875 -11.722656 1.34375 -13.46875 2.09375 -14.96875 C 2.851562 -16.476562 3.878906 -17.640625 5.171875 -18.453125 C 6.472656 -19.265625 7.921875 -19.671875 9.515625 -19.671875 Z M 15.5 -9.6875 C 15.5 -11.175781 15.085938 -12.347656 14.265625 -13.203125 C 13.441406 -14.054688 12.441406 -14.484375 11.265625 -14.484375 C 10.078125 -14.484375 9.070312 -14.0625 8.25 -13.21875 C 7.425781 -12.375 7.015625 -11.210938 7.015625 -9.734375 C 7.015625 -8.242188 7.425781 -7.066406 8.25 -6.203125 C 9.070312 -5.335938 10.078125 -4.90625 11.265625 -4.90625 C 12.441406 -4.90625 13.441406 -5.332031 14.265625 -6.1875 C 15.085938 -7.039062 15.5 -8.207031 15.5 -9.6875 Z M 15.5 -9.6875 "/></g></g></g><g fill="#d9d9d9" fill-opacity="1"><g transform="translate(225.891225, 54.035142)"><g><path d="M 14.078125 -19.59375 C 16.296875 -19.59375 18.078125 -18.859375 19.421875 -17.390625 C 20.765625 -15.921875 21.4375 -13.898438 21.4375 -11.328125 L 21.4375 0 L 15.53125 0 L 15.53125 -10.53125 C 15.53125 -11.820312 15.191406 -12.828125 14.515625 -13.546875 C 13.847656 -14.265625 12.945312 -14.625 11.8125 -14.625 C 10.675781 -14.625 9.769531 -14.265625 9.09375 -13.546875 C 8.425781 -12.828125 8.09375 -11.820312 8.09375 -10.53125 L 8.09375 0 L 2.15625 0 L 2.15625 -25.71875 L 8.09375 -25.71875 L 8.09375 -16.78125 C 8.695312 -17.632812 9.519531 -18.316406 10.5625 -18.828125 C 11.601562 -19.335938 12.773438 -19.59375 14.078125 -19.59375 Z M 14.078125 -19.59375 "/></g></g></g><g fill="#d9d9d9" fill-opacity="1"><g transform="translate(249.311946, 54.035142)"><g><path d="M 12.96875 -5.03125 L 12.96875 0 L 9.9375 0 C 7.78125 0 6.097656 -0.523438 4.890625 -1.578125 C 3.691406 -2.628906 3.09375 -4.347656 3.09375 -6.734375 L 3.09375 -14.453125 L 0.734375 -14.453125 L 0.734375 -19.390625 L 3.09375 -19.390625 L 3.09375 -24.109375 L 9.03125 -24.109375 L 9.03125 -19.390625 L 12.921875 -19.390625 L 12.921875 -14.453125 L 9.03125 -14.453125 L 9.03125 -6.671875 C 9.03125 -6.085938 9.171875 -5.664062 9.453125 -5.40625 C 9.734375 -5.15625 10.195312 -5.03125 10.84375 -5.03125 Z M 12.96875 -5.03125 "/></g></g></g><g fill="#d9d9d9" fill-opacity="1"><g transform="translate(263.419972, 54.035142)"><g><path d="M 23.28125 -24.390625 L 23.28125 0 L 17.34375 0 L 17.34375 -10.046875 L 8.09375 -10.046875 L 8.09375 0 L 2.15625 0 L 2.15625 -24.390625 L 8.09375 -24.390625 L 8.09375 -14.84375 L 17.34375 -14.84375 L 17.34375 -24.390625 Z M 23.28125 -24.390625 "/></g></g></g><g fill="#d9d9d9" fill-opacity="1"><g transform="translate(288.821377, 54.035142)"><g><path d="M 21.296875 -19.390625 L 21.296875 0 L 15.359375 0 L 15.359375 -2.640625 C 14.753906 -1.785156 13.9375 -1.097656 12.90625 -0.578125 C 11.875 -0.0546875 10.734375 0.203125 9.484375 0.203125 C 8.003906 0.203125 6.695312 -0.125 5.5625 -0.78125 C 4.425781 -1.4375 3.546875 -2.390625 2.921875 -3.640625 C 2.296875 -4.898438 1.984375 -6.375 1.984375 -8.0625 L 1.984375 -19.390625 L 7.890625 -19.390625 L 7.890625 -8.859375 C 7.890625 -7.566406 8.222656 -6.5625 8.890625 -5.84375 C 9.566406 -5.125 10.472656 -4.765625 11.609375 -4.765625 C 12.765625 -4.765625 13.675781 -5.125 14.34375 -5.84375 C 15.019531 -6.5625 15.359375 -7.566406 15.359375 -8.859375 L 15.359375 -19.390625 Z M 21.296875 -19.390625 "/></g></g></g><g fill="#d9d9d9" fill-opacity="1"><g transform="translate(312.242097, 54.035142)"><g><path d="M 8.09375 -16.640625 C 8.65625 -17.546875 9.457031 -18.273438 10.5 -18.828125 C 11.539062 -19.390625 12.734375 -19.671875 14.078125 -19.671875 C 15.671875 -19.671875 17.113281 -19.265625 18.40625 -18.453125 C 19.707031 -17.640625 20.734375 -16.476562 21.484375 -14.96875 C 22.242188 -13.46875 22.625 -11.722656 22.625 -9.734375 C 22.625 -7.734375 22.242188 -5.972656 21.484375 -4.453125 C 20.734375 -2.941406 19.707031 -1.773438 18.40625 -0.953125 C 17.113281 -0.128906 15.671875 0.28125 14.078125 0.28125 C 12.710938 0.28125 11.519531 0.0078125 10.5 -0.53125 C 9.476562 -1.082031 8.675781 -1.804688 8.09375 -2.703125 L 8.09375 0 L 2.15625 0 L 2.15625 -25.71875 L 8.09375 -25.71875 Z M 16.578125 -9.734375 C 16.578125 -11.210938 16.164062 -12.375 15.34375 -13.21875 C 14.519531 -14.0625 13.503906 -14.484375 12.296875 -14.484375 C 11.117188 -14.484375 10.117188 -14.054688 9.296875 -13.203125 C 8.472656 -12.347656 8.0625 -11.175781 8.0625 -9.6875 C 8.0625 -8.207031 8.472656 -7.039062 9.296875 -6.1875 C 10.117188 -5.332031 11.117188 -4.90625 12.296875 -4.90625 C 13.484375 -4.90625 14.492188 -5.335938 15.328125 -6.203125 C 16.160156 -7.066406 16.578125 -8.242188 16.578125 -9.734375 Z M 16.578125 -9.734375 "/></g></g></g><g fill="#d9d9d9" fill-opacity="1"><g transform="translate(139.087954, 82.074024)"><g><path d="M 6.8125 -2.34375 L 2.8125 -2.34375 L 1.96875 0.125 L 1.875 0.375 L 0.125 0.375 L 0.3125 -0.125 L 4.03125 -10.40625 L 4.109375 -10.65625 L 5.515625 -10.65625 L 5.609375 -10.40625 L 9.453125 -0.125 L 9.65625 0.375 L 7.78125 0.375 L 7.703125 0.125 Z M 3.3125 -3.8125 L 6.296875 -3.8125 L 4.78125 -8.046875 Z M 3.3125 -3.8125 "/></g></g></g><g fill="#d9d9d9" fill-opacity="1"><g transform="translate(148.735242, 82.074024)"><g><path d="M 3.796875 0.375 L 0.65625 0.375 L 0.65625 -1.03125 L 0.984375 -1.078125 L 1.546875 -1.125 L 1.546875 -9.140625 L 1.0625 -9.1875 L 0.734375 -9.234375 L 0.734375 -10.65625 L 4.078125 -10.65625 L 4.078125 -9.234375 L 3.765625 -9.1875 L 3.28125 -9.140625 L 3.28125 -1.125 L 3.828125 -1.078125 L 4.15625 -1.03125 L 4.15625 0.375 Z M 3.796875 0.375 "/></g></g></g><g fill="#d9d9d9" fill-opacity="1"><g transform="translate(153.845228, 82.074024)"><g/></g></g><g fill="#d9d9d9" fill-opacity="1"><g transform="translate(158.235704, 82.074024)"><g><path d="M 0.8125 0 L 0.8125 -10.65625 L 3.3125 -10.65625 C 4.59375 -10.65625 5.53125 -10.4375 6.125 -10 C 6.851562 -9.488281 7.21875 -8.640625 7.21875 -7.453125 C 7.21875 -6.816406 7.132812 -6.253906 6.96875 -5.765625 C 6.800781 -5.273438 6.539062 -4.863281 6.1875 -4.53125 C 5.84375 -4.207031 5.414062 -3.972656 4.90625 -3.828125 C 4.664062 -3.765625 4.410156 -3.710938 4.140625 -3.671875 C 3.878906 -3.640625 3.601562 -3.625 3.3125 -3.625 L 2.546875 -3.625 L 2.546875 0.375 L 0.8125 0.375 Z M 2.546875 -9.109375 L 2.546875 -5.171875 L 3.234375 -5.171875 C 4.023438 -5.171875 4.601562 -5.332031 4.96875 -5.65625 C 5.320312 -5.96875 5.5 -6.507812 5.5 -7.28125 C 5.5 -7.550781 5.472656 -7.785156 5.421875 -7.984375 C 5.378906 -8.179688 5.320312 -8.335938 5.25 -8.453125 C 5.1875 -8.566406 5.109375 -8.65625 5.015625 -8.71875 C 4.828125 -8.84375 4.582031 -8.9375 4.28125 -9 C 3.988281 -9.070312 3.640625 -9.109375 3.234375 -9.109375 Z M 2.546875 -9.109375 "/></g></g></g><g fill="#d9d9d9" fill-opacity="1"><g transform="translate(165.019581, 82.074024)"><g><path d="M 0.65625 -1.75 C 0.5625 -2.007812 0.488281 -2.285156 0.4375 -2.578125 C 0.394531 -2.878906 0.375 -3.195312 0.375 -3.53125 C 0.375 -4.832031 0.742188 -5.863281 1.484375 -6.625 C 2.222656 -7.382812 3.15625 -7.765625 4.28125 -7.765625 C 5.144531 -7.765625 5.875 -7.582031 6.46875 -7.21875 C 7.0625 -6.851562 7.492188 -6.3125 7.765625 -5.59375 C 7.972656 -5.082031 8.078125 -4.488281 8.078125 -3.8125 C 8.078125 -2.507812 7.707031 -1.476562 6.96875 -0.71875 C 6.207031 0.0390625 5.269531 0.421875 4.15625 0.421875 C 3.289062 0.421875 2.5625 0.238281 1.96875 -0.125 C 1.375 -0.488281 0.9375 -1.03125 0.65625 -1.75 Z M 2.65625 -1.796875 C 3.050781 -1.367188 3.5625 -1.15625 4.1875 -1.15625 C 4.8125 -1.15625 5.332031 -1.382812 5.75 -1.84375 C 6.175781 -2.289062 6.390625 -2.914062 6.390625 -3.71875 C 6.390625 -4.519531 6.191406 -5.128906 5.796875 -5.546875 C 5.410156 -5.972656 4.898438 -6.1875 4.265625 -6.1875 C 3.628906 -6.1875 3.101562 -5.960938 2.6875 -5.515625 C 2.269531 -5.054688 2.0625 -4.425781 2.0625 -3.625 C 2.0625 -2.820312 2.257812 -2.210938 2.65625 -1.796875 Z M 2.65625 -1.796875 "/></g></g></g><g fill="#d9d9d9" fill-opacity="1"><g transform="translate(172.5964, 82.074024)"><g><path d="M 5.828125 -4.671875 L 4.25 0.125 L 4.15625 0.375 L 2.75 0.375 L 2.65625 0.125 L 0.234375 -7.21875 L 0.09375 -7.6875 L 0.5625 -7.71875 L 1.625 -7.78125 L 1.921875 -7.796875 L 2.015625 -7.515625 L 3.53125 -2.46875 L 5.078125 -7.453125 L 5.15625 -7.703125 L 5.40625 -7.71875 L 5.8125 -7.734375 L 6.328125 -7.78125 L 6.640625 -7.8125 L 6.71875 -7.5 L 8.046875 -2.4375 L 9.8125 -7.46875 L 9.90625 -7.703125 L 10.140625 -7.71875 L 11.265625 -7.78125 L 11.84375 -7.8125 L 11.625 -7.28125 L 8.8125 0.125 L 8.71875 0.375 L 7.3125 0.375 Z M 5.828125 -4.671875 "/></g></g></g><g fill="#d9d9d9" fill-opacity="1"><g transform="translate(183.521132, 82.074024)"><g><path d="M 2.125 -3.375 C 2.125 -2.59375 2.289062 -2.023438 2.625 -1.671875 C 2.957031 -1.328125 3.492188 -1.15625 4.234375 -1.15625 C 4.890625 -1.15625 5.484375 -1.242188 6.015625 -1.421875 C 6.078125 -1.441406 6.128906 -1.460938 6.171875 -1.484375 C 6.222656 -1.503906 6.257812 -1.515625 6.28125 -1.515625 L 6.6875 -1.71875 L 6.796875 -1.296875 L 7.015625 -0.515625 L 7.09375 -0.234375 L 6.859375 -0.109375 C 6.460938 0.128906 5.785156 0.296875 4.828125 0.390625 C 4.691406 0.398438 4.554688 0.40625 4.421875 0.40625 C 4.285156 0.414062 4.144531 0.421875 4 0.421875 C 3.09375 0.421875 2.332031 0.191406 1.71875 -0.265625 C 0.863281 -0.890625 0.4375 -1.914062 0.4375 -3.34375 C 0.4375 -4.03125 0.53125 -4.644531 0.71875 -5.1875 C 0.90625 -5.738281 1.191406 -6.210938 1.578125 -6.609375 C 2.316406 -7.378906 3.222656 -7.765625 4.296875 -7.765625 C 5.390625 -7.765625 6.21875 -7.40625 6.78125 -6.6875 C 7.207031 -6.113281 7.421875 -5.378906 7.421875 -4.484375 C 7.421875 -4.273438 7.410156 -4.054688 7.390625 -3.828125 L 7.359375 -3.5 L 2.125 -3.5 Z M 4.359375 -6.125 C 3.835938 -6.125 3.398438 -5.96875 3.046875 -5.65625 C 2.796875 -5.445312 2.59375 -5.191406 2.4375 -4.890625 L 5.765625 -4.890625 C 5.753906 -5.066406 5.71875 -5.222656 5.65625 -5.359375 C 5.601562 -5.492188 5.535156 -5.609375 5.453125 -5.703125 C 5.378906 -5.796875 5.289062 -5.867188 5.1875 -5.921875 C 5.082031 -5.984375 4.96875 -6.03125 4.84375 -6.0625 L 4.8125 -6.0625 C 4.75 -6.082031 4.675781 -6.097656 4.59375 -6.109375 C 4.519531 -6.117188 4.441406 -6.125 4.359375 -6.125 Z M 4.359375 -6.125 "/></g></g></g><g fill="#d9d9d9" fill-opacity="1"><g transform="translate(190.951157, 82.074024)"><g><path d="M 4.53125 -6 C 4.425781 -6.050781 4.320312 -6.078125 4.21875 -6.078125 C 4.132812 -6.078125 4.070312 -6.078125 4.03125 -6.078125 L 4.015625 -6.0625 L 3.921875 -6.0625 C 3.847656 -6.0625 3.773438 -6.050781 3.703125 -6.03125 C 3.628906 -6.019531 3.554688 -6.003906 3.484375 -5.984375 C 3.410156 -5.960938 3.332031 -5.925781 3.25 -5.875 C 3.164062 -5.832031 3.085938 -5.785156 3.015625 -5.734375 C 2.972656 -5.703125 2.929688 -5.671875 2.890625 -5.640625 C 2.847656 -5.609375 2.8125 -5.578125 2.78125 -5.546875 C 2.5625 -5.367188 2.367188 -5.1875 2.203125 -5 L 2.203125 0.375 L 0.515625 0.375 L 0.515625 -7.6875 L 0.859375 -7.71875 L 1.8125 -7.78125 L 2.203125 -7.8125 L 2.203125 -6.734375 C 2.316406 -6.859375 2.429688 -6.957031 2.546875 -7.03125 C 3.054688 -7.425781 3.566406 -7.640625 4.078125 -7.671875 C 4.160156 -7.679688 4.28125 -7.6875 4.4375 -7.6875 C 4.625 -7.6875 4.878906 -7.640625 5.203125 -7.546875 L 5.59375 -7.4375 L 5.4375 -7.046875 L 5.046875 -6.171875 L 4.890625 -5.796875 Z M 4.53125 -6 "/></g></g></g><g fill="#d9d9d9" fill-opacity="1"><g transform="translate(195.253477, 82.074024)"><g><path d="M 2.125 -3.375 C 2.125 -2.59375 2.289062 -2.023438 2.625 -1.671875 C 2.957031 -1.328125 3.492188 -1.15625 4.234375 -1.15625 C 4.890625 -1.15625 5.484375 -1.242188 6.015625 -1.421875 C 6.078125 -1.441406 6.128906 -1.460938 6.171875 -1.484375 C 6.222656 -1.503906 6.257812 -1.515625 6.28125 -1.515625 L 6.6875 -1.71875 L 6.796875 -1.296875 L 7.015625 -0.515625 L 7.09375 -0.234375 L 6.859375 -0.109375 C 6.460938 0.128906 5.785156 0.296875 4.828125 0.390625 C 4.691406 0.398438 4.554688 0.40625 4.421875 0.40625 C 4.285156 0.414062 4.144531 0.421875 4 0.421875 C 3.09375 0.421875 2.332031 0.191406 1.71875 -0.265625 C 0.863281 -0.890625 0.4375 -1.914062 0.4375 -3.34375 C 0.4375 -4.03125 0.53125 -4.644531 0.71875 -5.1875 C 0.90625 -5.738281 1.191406 -6.210938 1.578125 -6.609375 C 2.316406 -7.378906 3.222656 -7.765625 4.296875 -7.765625 C 5.390625 -7.765625 6.21875 -7.40625 6.78125 -6.6875 C 7.207031 -6.113281 7.421875 -5.378906 7.421875 -4.484375 C 7.421875 -4.273438 7.410156 -4.054688 7.390625 -3.828125 L 7.359375 -3.5 L 2.125 -3.5 Z M 4.359375 -6.125 C 3.835938 -6.125 3.398438 -5.96875 3.046875 -5.65625 C 2.796875 -5.445312 2.59375 -5.191406 2.4375 -4.890625 L 5.765625 -4.890625 C 5.753906 -5.066406 5.71875 -5.222656 5.65625 -5.359375 C 5.601562 -5.492188 5.535156 -5.609375 5.453125 -5.703125 C 5.378906 -5.796875 5.289062 -5.867188 5.1875 -5.921875 C 5.082031 -5.984375 4.96875 -6.03125 4.84375 -6.0625 L 4.8125 -6.0625 C 4.75 -6.082031 4.675781 -6.097656 4.59375 -6.109375 C 4.519531 -6.117188 4.441406 -6.125 4.359375 -6.125 Z M 4.359375 -6.125 "/></g></g></g><g fill="#d9d9d9" fill-opacity="1"><g transform="translate(202.507288, 82.074024)"><g><path d="M 4.671875 -7.78125 C 5.109375 -7.78125 5.535156 -7.691406 5.953125 -7.515625 L 5.953125 -11.28125 L 6.28125 -11.3125 L 7.234375 -11.390625 L 7.640625 -11.40625 L 7.640625 0.03125 L 7.265625 0.03125 C 7.171875 0.03125 7.039062 0.046875 6.875 0.078125 C 6.71875 0.117188 6.53125 0.164062 6.3125 0.21875 C 6.101562 0.269531 5.90625 0.304688 5.71875 0.328125 C 5.351562 0.359375 5.046875 0.378906 4.796875 0.390625 C 4.546875 0.410156 4.347656 0.421875 4.203125 0.421875 C 3.296875 0.421875 2.539062 0.191406 1.9375 -0.265625 C 1.082031 -0.910156 0.65625 -1.941406 0.65625 -3.359375 C 0.65625 -3.816406 0.695312 -4.242188 0.78125 -4.640625 C 0.863281 -5.035156 0.988281 -5.398438 1.15625 -5.734375 C 1.332031 -6.078125 1.554688 -6.375 1.828125 -6.625 C 2.597656 -7.394531 3.546875 -7.78125 4.671875 -7.78125 Z M 5.953125 -6 C 5.765625 -6.0625 5.582031 -6.109375 5.40625 -6.140625 C 5.226562 -6.171875 5.050781 -6.1875 4.875 -6.1875 C 4.082031 -6.1875 3.46875 -5.953125 3.03125 -5.484375 C 2.570312 -5.003906 2.34375 -4.304688 2.34375 -3.390625 C 2.34375 -2.515625 2.578125 -1.90625 3.046875 -1.5625 C 3.378906 -1.289062 3.8125 -1.15625 4.34375 -1.15625 C 4.84375 -1.15625 5.378906 -1.191406 5.953125 -1.265625 Z M 5.953125 -6 "/></g></g></g><g fill="#d9d9d9" fill-opacity="1"><g transform="translate(210.363159, 82.074024)"><g/></g></g><g fill="#d9d9d9" fill-opacity="1"><g transform="translate(214.753631, 82.074024)"><g><path d="M 6.046875 -6.015625 C 6.984375 -5.484375 7.453125 -4.539062 7.453125 -3.1875 C 7.453125 -2.425781 7.363281 -1.820312 7.1875 -1.375 C 7.082031 -1.164062 6.960938 -0.96875 6.828125 -0.78125 C 6.691406 -0.601562 6.535156 -0.445312 6.359375 -0.3125 C 6.035156 -0.0703125 5.640625 0.0976562 5.171875 0.203125 C 4.703125 0.316406 4.15625 0.375 3.53125 0.375 L 0.734375 0.375 L 0.734375 -10.65625 L 3.3125 -10.65625 C 5 -10.65625 6.082031 -10.195312 6.5625 -9.28125 C 6.738281 -8.945312 6.828125 -8.554688 6.828125 -8.109375 C 6.828125 -7.878906 6.796875 -7.648438 6.734375 -7.421875 C 6.679688 -7.191406 6.597656 -6.960938 6.484375 -6.734375 C 6.472656 -6.703125 6.457031 -6.664062 6.4375 -6.625 C 6.414062 -6.59375 6.394531 -6.554688 6.375 -6.515625 C 6.351562 -6.484375 6.332031 -6.445312 6.3125 -6.40625 C 6.289062 -6.375 6.269531 -6.335938 6.25 -6.296875 C 6.226562 -6.265625 6.207031 -6.234375 6.1875 -6.203125 C 6.164062 -6.171875 6.140625 -6.140625 6.109375 -6.109375 C 6.085938 -6.078125 6.066406 -6.046875 6.046875 -6.015625 Z M 2.46875 -4.96875 L 2.46875 -1.171875 L 3.453125 -1.171875 C 4.296875 -1.171875 4.867188 -1.273438 5.171875 -1.484375 C 5.535156 -1.722656 5.71875 -2.222656 5.71875 -2.984375 C 5.71875 -3.359375 5.675781 -3.671875 5.59375 -3.921875 C 5.507812 -4.179688 5.390625 -4.382812 5.234375 -4.53125 C 5.085938 -4.675781 4.90625 -4.78125 4.6875 -4.84375 C 4.425781 -4.925781 4.132812 -4.96875 3.8125 -4.96875 Z M 4.5625 -6.484375 C 4.75 -6.734375 4.882812 -6.976562 4.96875 -7.21875 C 5.050781 -7.457031 5.09375 -7.695312 5.09375 -7.9375 C 5.09375 -8.394531 4.96875 -8.695312 4.71875 -8.84375 C 4.394531 -9.019531 3.898438 -9.109375 3.234375 -9.109375 L 2.46875 -9.109375 L 2.46875 -6.5 L 3.890625 -6.5 C 3.941406 -6.5 3.988281 -6.5 4.03125 -6.5 C 4.070312 -6.5 4.117188 -6.492188 4.171875 -6.484375 C 4.222656 -6.484375 4.269531 -6.484375 4.3125 -6.484375 C 4.351562 -6.484375 4.394531 -6.484375 4.4375 -6.484375 C 4.488281 -6.484375 4.53125 -6.484375 4.5625 -6.484375 Z M 4.5625 -6.484375 "/></g></g></g><g fill="#d9d9d9" fill-opacity="1"><g transform="translate(222.271756, 82.074024)"><g><path d="M 2.890625 -1.28125 C 3.078125 -1.21875 3.378906 -1.1875 3.796875 -1.1875 C 3.941406 -1.1875 4.109375 -1.210938 4.296875 -1.265625 C 4.492188 -1.316406 4.710938 -1.390625 4.953125 -1.484375 C 4.984375 -1.503906 5.015625 -1.519531 5.046875 -1.53125 C 5.078125 -1.550781 5.109375 -1.566406 5.140625 -1.578125 C 5.179688 -1.585938 5.21875 -1.597656 5.25 -1.609375 L 5.25 -7.6875 L 5.578125 -7.71875 L 6.53125 -7.78125 L 6.9375 -7.8125 L 6.9375 0.375 L 5.25 0.375 L 5.25 -0.109375 C 4.632812 0.234375 4.015625 0.40625 3.390625 0.40625 C 2.335938 0.40625 1.5625 0.078125 1.0625 -0.578125 C 0.789062 -0.910156 0.65625 -1.363281 0.65625 -1.9375 L 0.65625 -7.6875 L 1 -7.71875 L 1.953125 -7.78125 L 2.34375 -7.8125 L 2.34375 -2.1875 C 2.34375 -1.75 2.523438 -1.445312 2.890625 -1.28125 Z M 2.890625 -1.28125 "/></g></g></g><g fill="#d9d9d9" fill-opacity="1"><g transform="translate(229.789888, 82.074024)"><g><path d="M 4.9375 -6.015625 C 4.625 -6.128906 4.179688 -6.1875 3.609375 -6.1875 C 3.078125 -6.1875 2.675781 -6.097656 2.40625 -5.921875 C 2.1875 -5.773438 2.078125 -5.613281 2.078125 -5.4375 C 2.078125 -5.238281 2.125 -5.097656 2.21875 -5.015625 C 2.382812 -4.890625 2.59375 -4.785156 2.84375 -4.703125 C 3.144531 -4.597656 3.460938 -4.5 3.796875 -4.40625 C 3.972656 -4.351562 4.148438 -4.289062 4.328125 -4.21875 C 4.503906 -4.15625 4.671875 -4.082031 4.828125 -4 C 5.222656 -3.800781 5.523438 -3.535156 5.734375 -3.203125 C 5.941406 -2.878906 6.046875 -2.507812 6.046875 -2.09375 C 6.046875 -1.28125 5.765625 -0.648438 5.203125 -0.203125 C 5.078125 -0.117188 4.953125 -0.046875 4.828125 0.015625 C 4.703125 0.0859375 4.566406 0.148438 4.421875 0.203125 C 4.273438 0.253906 4.117188 0.296875 3.953125 0.328125 C 3.796875 0.359375 3.628906 0.378906 3.453125 0.390625 C 3.273438 0.410156 3.085938 0.421875 2.890625 0.421875 C 2.398438 0.421875 1.929688 0.375 1.484375 0.28125 C 1.003906 0.175781 0.632812 0.0234375 0.375 -0.171875 L 0.125 -0.359375 L 0.25 -0.609375 L 0.578125 -1.390625 L 0.765625 -1.859375 L 1.140625 -1.53125 C 1.316406 -1.382812 1.710938 -1.269531 2.328125 -1.1875 C 2.523438 -1.15625 2.726562 -1.140625 2.9375 -1.140625 C 3.375 -1.140625 3.738281 -1.226562 4.03125 -1.40625 C 4.101562 -1.457031 4.160156 -1.507812 4.203125 -1.5625 C 4.253906 -1.625 4.289062 -1.691406 4.3125 -1.765625 C 4.34375 -1.847656 4.359375 -1.945312 4.359375 -2.0625 C 4.359375 -2.238281 4.304688 -2.375 4.203125 -2.46875 C 4.035156 -2.601562 3.820312 -2.71875 3.5625 -2.8125 C 3.425781 -2.875 3.28125 -2.925781 3.125 -2.96875 C 2.96875 -3.019531 2.804688 -3.066406 2.640625 -3.109375 C 2.265625 -3.203125 1.921875 -3.328125 1.609375 -3.484375 C 1.273438 -3.648438 0.992188 -3.863281 0.765625 -4.125 C 0.671875 -4.226562 0.59375 -4.34375 0.53125 -4.46875 C 0.476562 -4.59375 0.4375 -4.722656 0.40625 -4.859375 C 0.382812 -4.992188 0.375 -5.140625 0.375 -5.296875 C 0.375 -6.054688 0.671875 -6.664062 1.265625 -7.125 C 1.804688 -7.550781 2.535156 -7.765625 3.453125 -7.765625 C 3.671875 -7.765625 3.894531 -7.75 4.125 -7.71875 C 4.34375 -7.707031 4.539062 -7.691406 4.71875 -7.671875 L 4.734375 -7.671875 L 5.34375 -7.5625 L 5.75 -7.484375 L 5.640625 -7.09375 L 5.40625 -6.265625 L 5.296875 -5.90625 Z M 4.9375 -6.015625 "/></g></g></g><g fill="#d9d9d9" fill-opacity="1"><g transform="translate(235.736832, 82.074024)"><g><path d="M 2.515625 -7.421875 L 2.515625 0.375 L 0.828125 0.375 L 0.828125 -7.6875 L 1.15625 -7.71875 L 2.109375 -7.78125 L 2.515625 -7.8125 Z M 0.890625 -9.265625 C 0.734375 -9.460938 0.65625 -9.703125 0.65625 -9.984375 C 0.65625 -10.273438 0.742188 -10.515625 0.921875 -10.703125 C 1.109375 -10.910156 1.351562 -11.015625 1.65625 -11.015625 C 1.789062 -11.015625 1.921875 -10.988281 2.046875 -10.9375 C 2.179688 -10.894531 2.296875 -10.820312 2.390625 -10.71875 C 2.492188 -10.625 2.566406 -10.507812 2.609375 -10.375 C 2.660156 -10.238281 2.6875 -10.097656 2.6875 -9.953125 C 2.6875 -9.617188 2.570312 -9.363281 2.34375 -9.1875 C 2.15625 -9.019531 1.914062 -8.9375 1.625 -8.9375 C 1.3125 -8.9375 1.066406 -9.046875 0.890625 -9.265625 Z M 0.890625 -9.265625 "/></g></g></g><g fill="#d9d9d9" fill-opacity="1"><g transform="translate(238.937915, 82.074024)"><g><path d="M 2.203125 -7.21875 C 2.785156 -7.550781 3.351562 -7.726562 3.90625 -7.75 L 3.921875 -7.75 C 4.242188 -7.75 4.53125 -7.726562 4.78125 -7.6875 C 5.03125 -7.65625 5.253906 -7.59375 5.453125 -7.5 C 5.828125 -7.320312 6.140625 -7.078125 6.390625 -6.765625 C 6.648438 -6.429688 6.78125 -5.976562 6.78125 -5.40625 L 6.78125 0.375 L 5.09375 0.375 L 5.09375 -5.15625 C 5.09375 -5.425781 5.046875 -5.625 4.953125 -5.75 C 4.703125 -6.03125 4.316406 -6.171875 3.796875 -6.171875 C 3.378906 -6.148438 2.945312 -6.039062 2.5 -5.84375 C 2.46875 -5.832031 2.4375 -5.820312 2.40625 -5.8125 C 2.382812 -5.800781 2.363281 -5.785156 2.34375 -5.765625 C 2.320312 -5.753906 2.296875 -5.742188 2.265625 -5.734375 C 2.242188 -5.734375 2.222656 -5.726562 2.203125 -5.71875 L 2.203125 0.375 L 0.515625 0.375 L 0.515625 -7.6875 L 0.859375 -7.71875 L 1.8125 -7.78125 L 2.203125 -7.8125 Z M 2.203125 -7.21875 "/></g></g></g><g fill="#d9d9d9" fill-opacity="1"><g transform="translate(246.235787, 82.074024)"><g><path d="M 2.125 -3.375 C 2.125 -2.59375 2.289062 -2.023438 2.625 -1.671875 C 2.957031 -1.328125 3.492188 -1.15625 4.234375 -1.15625 C 4.890625 -1.15625 5.484375 -1.242188 6.015625 -1.421875 C 6.078125 -1.441406 6.128906 -1.460938 6.171875 -1.484375 C 6.222656 -1.503906 6.257812 -1.515625 6.28125 -1.515625 L 6.6875 -1.71875 L 6.796875 -1.296875 L 7.015625 -0.515625 L 7.09375 -0.234375 L 6.859375 -0.109375 C 6.460938 0.128906 5.785156 0.296875 4.828125 0.390625 C 4.691406 0.398438 4.554688 0.40625 4.421875 0.40625 C 4.285156 0.414062 4.144531 0.421875 4 0.421875 C 3.09375 0.421875 2.332031 0.191406 1.71875 -0.265625 C 0.863281 -0.890625 0.4375 -1.914062 0.4375 -3.34375 C 0.4375 -4.03125 0.53125 -4.644531 0.71875 -5.1875 C 0.90625 -5.738281 1.191406 -6.210938 1.578125 -6.609375 C 2.316406 -7.378906 3.222656 -7.765625 4.296875 -7.765625 C 5.390625 -7.765625 6.21875 -7.40625 6.78125 -6.6875 C 7.207031 -6.113281 7.421875 -5.378906 7.421875 -4.484375 C 7.421875 -4.273438 7.410156 -4.054688 7.390625 -3.828125 L 7.359375 -3.5 L 2.125 -3.5 Z M 4.359375 -6.125 C 3.835938 -6.125 3.398438 -5.96875 3.046875 -5.65625 C 2.796875 -5.445312 2.59375 -5.191406 2.4375 -4.890625 L 5.765625 -4.890625 C 5.753906 -5.066406 5.71875 -5.222656 5.65625 -5.359375 C 5.601562 -5.492188 5.535156 -5.609375 5.453125 -5.703125 C 5.378906 -5.796875 5.289062 -5.867188 5.1875 -5.921875 C 5.082031 -5.984375 4.96875 -6.03125 4.84375 -6.0625 L 4.8125 -6.0625 C 4.75 -6.082031 4.675781 -6.097656 4.59375 -6.109375 C 4.519531 -6.117188 4.441406 -6.125 4.359375 -6.125 Z M 4.359375 -6.125 "/></g></g></g><g fill="#d9d9d9" fill-opacity="1"><g transform="translate(253.812661, 82.074024)"><g><path d="M 4.9375 -6.015625 C 4.625 -6.128906 4.179688 -6.1875 3.609375 -6.1875 C 3.078125 -6.1875 2.675781 -6.097656 2.40625 -5.921875 C 2.1875 -5.773438 2.078125 -5.613281 2.078125 -5.4375 C 2.078125 -5.238281 2.125 -5.097656 2.21875 -5.015625 C 2.382812 -4.890625 2.59375 -4.785156 2.84375 -4.703125 C 3.144531 -4.597656 3.460938 -4.5 3.796875 -4.40625 C 3.972656 -4.351562 4.148438 -4.289062 4.328125 -4.21875 C 4.503906 -4.15625 4.671875 -4.082031 4.828125 -4 C 5.222656 -3.800781 5.523438 -3.535156 5.734375 -3.203125 C 5.941406 -2.878906 6.046875 -2.507812 6.046875 -2.09375 C 6.046875 -1.28125 5.765625 -0.648438 5.203125 -0.203125 C 5.078125 -0.117188 4.953125 -0.046875 4.828125 0.015625 C 4.703125 0.0859375 4.566406 0.148438 4.421875 0.203125 C 4.273438 0.253906 4.117188 0.296875 3.953125 0.328125 C 3.796875 0.359375 3.628906 0.378906 3.453125 0.390625 C 3.273438 0.410156 3.085938 0.421875 2.890625 0.421875 C 2.398438 0.421875 1.929688 0.375 1.484375 0.28125 C 1.003906 0.175781 0.632812 0.0234375 0.375 -0.171875 L 0.125 -0.359375 L 0.25 -0.609375 L 0.578125 -1.390625 L 0.765625 -1.859375 L 1.140625 -1.53125 C 1.316406 -1.382812 1.710938 -1.269531 2.328125 -1.1875 C 2.523438 -1.15625 2.726562 -1.140625 2.9375 -1.140625 C 3.375 -1.140625 3.738281 -1.226562 4.03125 -1.40625 C 4.101562 -1.457031 4.160156 -1.507812 4.203125 -1.5625 C 4.253906 -1.625 4.289062 -1.691406 4.3125 -1.765625 C 4.34375 -1.847656 4.359375 -1.945312 4.359375 -2.0625 C 4.359375 -2.238281 4.304688 -2.375 4.203125 -2.46875 C 4.035156 -2.601562 3.820312 -2.71875 3.5625 -2.8125 C 3.425781 -2.875 3.28125 -2.925781 3.125 -2.96875 C 2.96875 -3.019531 2.804688 -3.066406 2.640625 -3.109375 C 2.265625 -3.203125 1.921875 -3.328125 1.609375 -3.484375 C 1.273438 -3.648438 0.992188 -3.863281 0.765625 -4.125 C 0.671875 -4.226562 0.59375 -4.34375 0.53125 -4.46875 C 0.476562 -4.59375 0.4375 -4.722656 0.40625 -4.859375 C 0.382812 -4.992188 0.375 -5.140625 0.375 -5.296875 C 0.375 -6.054688 0.671875 -6.664062 1.265625 -7.125 C 1.804688 -7.550781 2.535156 -7.765625 3.453125 -7.765625 C 3.671875 -7.765625 3.894531 -7.75 4.125 -7.71875 C 4.34375 -7.707031 4.539062 -7.691406 4.71875 -7.671875 L 4.734375 -7.671875 L 5.34375 -7.5625 L 5.75 -7.484375 L 5.640625 -7.09375 L 5.40625 -6.265625 L 5.296875 -5.90625 Z M 4.9375 -6.015625 "/></g></g></g><g fill="#d9d9d9" fill-opacity="1"><g transform="translate(259.83303, 82.074024)"><g><path d="M 4.9375 -6.015625 C 4.625 -6.128906 4.179688 -6.1875 3.609375 -6.1875 C 3.078125 -6.1875 2.675781 -6.097656 2.40625 -5.921875 C 2.1875 -5.773438 2.078125 -5.613281 2.078125 -5.4375 C 2.078125 -5.238281 2.125 -5.097656 2.21875 -5.015625 C 2.382812 -4.890625 2.59375 -4.785156 2.84375 -4.703125 C 3.144531 -4.597656 3.460938 -4.5 3.796875 -4.40625 C 3.972656 -4.351562 4.148438 -4.289062 4.328125 -4.21875 C 4.503906 -4.15625 4.671875 -4.082031 4.828125 -4 C 5.222656 -3.800781 5.523438 -3.535156 5.734375 -3.203125 C 5.941406 -2.878906 6.046875 -2.507812 6.046875 -2.09375 C 6.046875 -1.28125 5.765625 -0.648438 5.203125 -0.203125 C 5.078125 -0.117188 4.953125 -0.046875 4.828125 0.015625 C 4.703125 0.0859375 4.566406 0.148438 4.421875 0.203125 C 4.273438 0.253906 4.117188 0.296875 3.953125 0.328125 C 3.796875 0.359375 3.628906 0.378906 3.453125 0.390625 C 3.273438 0.410156 3.085938 0.421875 2.890625 0.421875 C 2.398438 0.421875 1.929688 0.375 1.484375 0.28125 C 1.003906 0.175781 0.632812 0.0234375 0.375 -0.171875 L 0.125 -0.359375 L 0.25 -0.609375 L 0.578125 -1.390625 L 0.765625 -1.859375 L 1.140625 -1.53125 C 1.316406 -1.382812 1.710938 -1.269531 2.328125 -1.1875 C 2.523438 -1.15625 2.726562 -1.140625 2.9375 -1.140625 C 3.375 -1.140625 3.738281 -1.226562 4.03125 -1.40625 C 4.101562 -1.457031 4.160156 -1.507812 4.203125 -1.5625 C 4.253906 -1.625 4.289062 -1.691406 4.3125 -1.765625 C 4.34375 -1.847656 4.359375 -1.945312 4.359375 -2.0625 C 4.359375 -2.238281 4.304688 -2.375 4.203125 -2.46875 C 4.035156 -2.601562 3.820312 -2.71875 3.5625 -2.8125 C 3.425781 -2.875 3.28125 -2.925781 3.125 -2.96875 C 2.96875 -3.019531 2.804688 -3.066406 2.640625 -3.109375 C 2.265625 -3.203125 1.921875 -3.328125 1.609375 -3.484375 C 1.273438 -3.648438 0.992188 -3.863281 0.765625 -4.125 C 0.671875 -4.226562 0.59375 -4.34375 0.53125 -4.46875 C 0.476562 -4.59375 0.4375 -4.722656 0.40625 -4.859375 C 0.382812 -4.992188 0.375 -5.140625 0.375 -5.296875 C 0.375 -6.054688 0.671875 -6.664062 1.265625 -7.125 C 1.804688 -7.550781 2.535156 -7.765625 3.453125 -7.765625 C 3.671875 -7.765625 3.894531 -7.75 4.125 -7.71875 C 4.34375 -7.707031 4.539062 -7.691406 4.71875 -7.671875 L 4.734375 -7.671875 L 5.34375 -7.5625 L 5.75 -7.484375 L 5.640625 -7.09375 L 5.40625 -6.265625 L 5.296875 -5.90625 Z M 4.9375 -6.015625 "/></g></g></g><g fill="#d9d9d9" fill-opacity="1"><g transform="translate(266.103044, 82.074024)"><g/></g></g><g fill="#d9d9d9" fill-opacity="1"><g transform="translate(270.493516, 82.074024)"><g><path d="M 3.796875 0.375 L 0.65625 0.375 L 0.65625 -1.03125 L 0.984375 -1.078125 L 1.546875 -1.125 L 1.546875 -9.140625 L 1.0625 -9.1875 L 0.734375 -9.234375 L 0.734375 -10.65625 L 4.078125 -10.65625 L 4.078125 -9.234375 L 3.765625 -9.1875 L 3.28125 -9.140625 L 3.28125 -1.125 L 3.828125 -1.078125 L 4.15625 -1.03125 L 4.15625 0.375 Z M 3.796875 0.375 "/></g></g></g><g fill="#d9d9d9" fill-opacity="1"><g transform="translate(275.236375, 82.074024)"><g><path d="M 2.203125 -7.21875 C 2.785156 -7.550781 3.351562 -7.726562 3.90625 -7.75 L 3.921875 -7.75 C 4.242188 -7.75 4.53125 -7.726562 4.78125 -7.6875 C 5.03125 -7.65625 5.253906 -7.59375 5.453125 -7.5 C 5.828125 -7.320312 6.140625 -7.078125 6.390625 -6.765625 C 6.648438 -6.429688 6.78125 -5.976562 6.78125 -5.40625 L 6.78125 0.375 L 5.09375 0.375 L 5.09375 -5.15625 C 5.09375 -5.425781 5.046875 -5.625 4.953125 -5.75 C 4.703125 -6.03125 4.316406 -6.171875 3.796875 -6.171875 C 3.378906 -6.148438 2.945312 -6.039062 2.5 -5.84375 C 2.46875 -5.832031 2.4375 -5.820312 2.40625 -5.8125 C 2.382812 -5.800781 2.363281 -5.785156 2.34375 -5.765625 C 2.320312 -5.753906 2.296875 -5.742188 2.265625 -5.734375 C 2.242188 -5.734375 2.222656 -5.726562 2.203125 -5.71875 L 2.203125 0.375 L 0.515625 0.375 L 0.515625 -7.6875 L 0.859375 -7.71875 L 1.8125 -7.78125 L 2.203125 -7.8125 Z M 2.203125 -7.21875 "/></g></g></g><g fill="#d9d9d9" fill-opacity="1"><g transform="translate(282.53424, 82.074024)"><g><path d="M 4.515625 0 C 4.253906 0.25 3.847656 0.375 3.296875 0.375 C 2.535156 0.375 2.003906 0.160156 1.703125 -0.265625 C 1.265625 -0.691406 1.046875 -1.257812 1.046875 -1.96875 L 1.046875 -6.125 L 0.15625 -6.125 L 0.21875 -6.546875 L 0.359375 -7.40625 L 0.40625 -7.71875 L 1.046875 -7.71875 L 1.046875 -9.140625 L 1.375 -9.171875 L 2.328125 -9.25 L 2.734375 -9.28125 L 2.734375 -7.71875 L 4.4375 -7.71875 L 4.4375 -6.125 L 2.734375 -6.125 L 2.734375 -1.734375 C 2.734375 -1.535156 2.765625 -1.40625 2.828125 -1.34375 C 2.898438 -1.28125 3.035156 -1.25 3.234375 -1.25 C 3.441406 -1.25 3.675781 -1.296875 3.9375 -1.390625 L 4.328125 -1.5625 L 4.421875 -1.125 L 4.59375 -0.34375 L 4.640625 -0.140625 Z M 4.515625 0 "/></g></g></g><g fill="#d9d9d9" fill-opacity="1"><g transform="translate(286.763153, 82.074024)"><g><path d="M 2.125 -3.375 C 2.125 -2.59375 2.289062 -2.023438 2.625 -1.671875 C 2.957031 -1.328125 3.492188 -1.15625 4.234375 -1.15625 C 4.890625 -1.15625 5.484375 -1.242188 6.015625 -1.421875 C 6.078125 -1.441406 6.128906 -1.460938 6.171875 -1.484375 C 6.222656 -1.503906 6.257812 -1.515625 6.28125 -1.515625 L 6.6875 -1.71875 L 6.796875 -1.296875 L 7.015625 -0.515625 L 7.09375 -0.234375 L 6.859375 -0.109375 C 6.460938 0.128906 5.785156 0.296875 4.828125 0.390625 C 4.691406 0.398438 4.554688 0.40625 4.421875 0.40625 C 4.285156 0.414062 4.144531 0.421875 4 0.421875 C 3.09375 0.421875 2.332031 0.191406 1.71875 -0.265625 C 0.863281 -0.890625 0.4375 -1.914062 0.4375 -3.34375 C 0.4375 -4.03125 0.53125 -4.644531 0.71875 -5.1875 C 0.90625 -5.738281 1.191406 -6.210938 1.578125 -6.609375 C 2.316406 -7.378906 3.222656 -7.765625 4.296875 -7.765625 C 5.390625 -7.765625 6.21875 -7.40625 6.78125 -6.6875 C 7.207031 -6.113281 7.421875 -5.378906 7.421875 -4.484375 C 7.421875 -4.273438 7.410156 -4.054688 7.390625 -3.828125 L 7.359375 -3.5 L 2.125 -3.5 Z M 4.359375 -6.125 C 3.835938 -6.125 3.398438 -5.96875 3.046875 -5.65625 C 2.796875 -5.445312 2.59375 -5.191406 2.4375 -4.890625 L 5.765625 -4.890625 C 5.753906 -5.066406 5.71875 -5.222656 5.65625 -5.359375 C 5.601562 -5.492188 5.535156 -5.609375 5.453125 -5.703125 C 5.378906 -5.796875 5.289062 -5.867188 5.1875 -5.921875 C 5.082031 -5.984375 4.96875 -6.03125 4.84375 -6.0625 L 4.8125 -6.0625 C 4.75 -6.082031 4.675781 -6.097656 4.59375 -6.109375 C 4.519531 -6.117188 4.441406 -6.125 4.359375 -6.125 Z M 4.359375 -6.125 "/></g></g></g><g fill="#d9d9d9" fill-opacity="1"><g transform="translate(294.193171, 82.074024)"><g><path d="M 0.65625 0 L 0.65625 -11.28125 L 1 -11.3125 L 1.953125 -11.390625 L 2.34375 -11.40625 L 2.34375 0.375 L 0.65625 0.375 Z M 0.65625 0 "/></g></g></g><g fill="#d9d9d9" fill-opacity="1"><g transform="translate(296.762844, 82.074024)"><g><path d="M 0.65625 0 L 0.65625 -11.28125 L 1 -11.3125 L 1.953125 -11.390625 L 2.34375 -11.40625 L 2.34375 0.375 L 0.65625 0.375 Z M 0.65625 0 "/></g></g></g><g fill="#d9d9d9" fill-opacity="1"><g transform="translate(299.332518, 82.074024)"><g><path d="M 2.515625 -7.421875 L 2.515625 0.375 L 0.828125 0.375 L 0.828125 -7.6875 L 1.15625 -7.71875 L 2.109375 -7.78125 L 2.515625 -7.8125 Z M 0.890625 -9.265625 C 0.734375 -9.460938 0.65625 -9.703125 0.65625 -9.984375 C 0.65625 -10.273438 0.742188 -10.515625 0.921875 -10.703125 C 1.109375 -10.910156 1.351562 -11.015625 1.65625 -11.015625 C 1.789062 -11.015625 1.921875 -10.988281 2.046875 -10.9375 C 2.179688 -10.894531 2.296875 -10.820312 2.390625 -10.71875 C 2.492188 -10.625 2.566406 -10.507812 2.609375 -10.375 C 2.660156 -10.238281 2.6875 -10.097656 2.6875 -9.953125 C 2.6875 -9.617188 2.570312 -9.363281 2.34375 -9.1875 C 2.15625 -9.019531 1.914062 -8.9375 1.625 -8.9375 C 1.3125 -8.9375 1.066406 -9.046875 0.890625 -9.265625 Z M 0.890625 -9.265625 "/></g></g></g><g fill="#d9d9d9" fill-opacity="1"><g transform="translate(301.990257, 82.074024)"><g><path d="M 1.5 -2.78125 C 0.914062 -3.25 0.625 -3.945312 0.625 -4.875 C 0.625 -5.8125 0.957031 -6.535156 1.625 -7.046875 C 2.257812 -7.523438 3.0625 -7.765625 4.03125 -7.765625 C 4.0625 -7.765625 4.101562 -7.765625 4.15625 -7.765625 C 4.207031 -7.765625 4.253906 -7.757812 4.296875 -7.75 C 4.335938 -7.75 4.382812 -7.742188 4.4375 -7.734375 C 4.5 -7.734375 4.550781 -7.726562 4.59375 -7.71875 C 4.644531 -7.71875 4.695312 -7.71875 4.75 -7.71875 C 4.800781 -7.71875 4.851562 -7.710938 4.90625 -7.703125 L 7.640625 -7.765625 L 8.03125 -7.78125 L 8.015625 -7.390625 L 7.984375 -6.828125 L 7.96875 -6.484375 L 6.84375 -6.484375 C 7.082031 -6.066406 7.203125 -5.578125 7.203125 -5.015625 C 7.203125 -4.566406 7.125 -4.160156 6.96875 -3.796875 C 6.8125 -3.441406 6.570312 -3.132812 6.25 -2.875 C 5.644531 -2.382812 4.875 -2.140625 3.9375 -2.140625 C 3.46875 -2.140625 3.054688 -2.175781 2.703125 -2.25 C 2.671875 -2.1875 2.65625 -2.117188 2.65625 -2.046875 C 2.65625 -1.984375 2.660156 -1.929688 2.671875 -1.890625 C 2.691406 -1.859375 2.722656 -1.820312 2.765625 -1.78125 C 2.816406 -1.738281 2.890625 -1.695312 2.984375 -1.65625 C 3.316406 -1.519531 3.71875 -1.421875 4.1875 -1.359375 C 4.757812 -1.285156 5.253906 -1.191406 5.671875 -1.078125 C 6.085938 -0.972656 6.4375 -0.847656 6.71875 -0.703125 C 7.539062 -0.242188 7.953125 0.460938 7.953125 1.421875 C 7.953125 2.378906 7.5 3.085938 6.59375 3.546875 C 6.269531 3.710938 5.914062 3.835938 5.53125 3.921875 C 5.15625 4.003906 4.742188 4.046875 4.296875 4.046875 C 3.441406 4.046875 2.769531 3.972656 2.28125 3.828125 C 1.632812 3.640625 1.128906 3.351562 0.765625 2.96875 C 0.410156 2.59375 0.234375 2.128906 0.234375 1.578125 C 0.234375 1.097656 0.347656 0.65625 0.578125 0.25 C 0.804688 -0.15625 1.144531 -0.519531 1.59375 -0.84375 C 1.445312 -1 1.34375 -1.160156 1.28125 -1.328125 C 1.21875 -1.492188 1.1875 -1.664062 1.1875 -1.84375 C 1.1875 -2.1875 1.289062 -2.5 1.5 -2.78125 Z M 6.265625 1.40625 C 6.265625 1.1875 6.1875 1 6.03125 0.84375 C 5.882812 0.6875 5.628906 0.550781 5.265625 0.4375 C 5.046875 0.375 4.640625 0.296875 4.046875 0.203125 C 3.535156 0.117188 3.109375 0.0195312 2.765625 -0.09375 C 2.203125 0.40625 1.921875 0.875 1.921875 1.3125 C 1.921875 1.5 1.953125 1.65625 2.015625 1.78125 C 2.054688 1.882812 2.148438 1.984375 2.296875 2.078125 C 2.472656 2.203125 2.707031 2.296875 3 2.359375 C 3.289062 2.421875 3.640625 2.453125 4.046875 2.453125 C 5.085938 2.453125 5.78125 2.25 6.125 1.84375 C 6.144531 1.820312 6.164062 1.789062 6.1875 1.75 C 6.207031 1.71875 6.222656 1.679688 6.234375 1.640625 C 6.242188 1.609375 6.25 1.570312 6.25 1.53125 C 6.257812 1.5 6.265625 1.457031 6.265625 1.40625 Z M 5.46875 -5.0625 C 5.46875 -5.488281 5.351562 -5.789062 5.125 -5.96875 C 4.894531 -6.15625 4.515625 -6.25 3.984375 -6.25 C 3.472656 -6.25 3.054688 -6.140625 2.734375 -5.921875 C 2.460938 -5.722656 2.328125 -5.414062 2.328125 -5 C 2.328125 -4.53125 2.425781 -4.191406 2.625 -3.984375 C 2.832031 -3.765625 3.210938 -3.65625 3.765625 -3.65625 C 4.046875 -3.65625 4.289062 -3.6875 4.5 -3.75 C 4.707031 -3.8125 4.882812 -3.910156 5.03125 -4.046875 C 5.1875 -4.160156 5.296875 -4.300781 5.359375 -4.46875 C 5.429688 -4.632812 5.46875 -4.832031 5.46875 -5.0625 Z M 5.46875 -5.0625 "/></g></g></g><g fill="#d9d9d9" fill-opacity="1"><g transform="translate(309.449598, 82.074024)"><g><path d="M 2.125 -3.375 C 2.125 -2.59375 2.289062 -2.023438 2.625 -1.671875 C 2.957031 -1.328125 3.492188 -1.15625 4.234375 -1.15625 C 4.890625 -1.15625 5.484375 -1.242188 6.015625 -1.421875 C 6.078125 -1.441406 6.128906 -1.460938 6.171875 -1.484375 C 6.222656 -1.503906 6.257812 -1.515625 6.28125 -1.515625 L 6.6875 -1.71875 L 6.796875 -1.296875 L 7.015625 -0.515625 L 7.09375 -0.234375 L 6.859375 -0.109375 C 6.460938 0.128906 5.785156 0.296875 4.828125 0.390625 C 4.691406 0.398438 4.554688 0.40625 4.421875 0.40625 C 4.285156 0.414062 4.144531 0.421875 4 0.421875 C 3.09375 0.421875 2.332031 0.191406 1.71875 -0.265625 C 0.863281 -0.890625 0.4375 -1.914062 0.4375 -3.34375 C 0.4375 -4.03125 0.53125 -4.644531 0.71875 -5.1875 C 0.90625 -5.738281 1.191406 -6.210938 1.578125 -6.609375 C 2.316406 -7.378906 3.222656 -7.765625 4.296875 -7.765625 C 5.390625 -7.765625 6.21875 -7.40625 6.78125 -6.6875 C 7.207031 -6.113281 7.421875 -5.378906 7.421875 -4.484375 C 7.421875 -4.273438 7.410156 -4.054688 7.390625 -3.828125 L 7.359375 -3.5 L 2.125 -3.5 Z M 4.359375 -6.125 C 3.835938 -6.125 3.398438 -5.96875 3.046875 -5.65625 C 2.796875 -5.445312 2.59375 -5.191406 2.4375 -4.890625 L 5.765625 -4.890625 C 5.753906 -5.066406 5.71875 -5.222656 5.65625 -5.359375 C 5.601562 -5.492188 5.535156 -5.609375 5.453125 -5.703125 C 5.378906 -5.796875 5.289062 -5.867188 5.1875 -5.921875 C 5.082031 -5.984375 4.96875 -6.03125 4.84375 -6.0625 L 4.8125 -6.0625 C 4.75 -6.082031 4.675781 -6.097656 4.59375 -6.109375 C 4.519531 -6.117188 4.441406 -6.125 4.359375 -6.125 Z M 4.359375 -6.125 "/></g></g></g><g fill="#d9d9d9" fill-opacity="1"><g transform="translate(316.879629, 82.074024)"><g><path d="M 2.203125 -7.21875 C 2.785156 -7.550781 3.351562 -7.726562 3.90625 -7.75 L 3.921875 -7.75 C 4.242188 -7.75 4.53125 -7.726562 4.78125 -7.6875 C 5.03125 -7.65625 5.253906 -7.59375 5.453125 -7.5 C 5.828125 -7.320312 6.140625 -7.078125 6.390625 -6.765625 C 6.648438 -6.429688 6.78125 -5.976562 6.78125 -5.40625 L 6.78125 0.375 L 5.09375 0.375 L 5.09375 -5.15625 C 5.09375 -5.425781 5.046875 -5.625 4.953125 -5.75 C 4.703125 -6.03125 4.316406 -6.171875 3.796875 -6.171875 C 3.378906 -6.148438 2.945312 -6.039062 2.5 -5.84375 C 2.46875 -5.832031 2.4375 -5.820312 2.40625 -5.8125 C 2.382812 -5.800781 2.363281 -5.785156 2.34375 -5.765625 C 2.320312 -5.753906 2.296875 -5.742188 2.265625 -5.734375 C 2.242188 -5.734375 2.222656 -5.726562 2.203125 -5.71875 L 2.203125 0.375 L 0.515625 0.375 L 0.515625 -7.6875 L 0.859375 -7.71875 L 1.8125 -7.78125 L 2.203125 -7.8125 Z M 2.203125 -7.21875 "/></g></g></g><g fill="#d9d9d9" fill-opacity="1"><g transform="translate(324.177494, 82.074024)"><g><path d="M 5.390625 -6.078125 C 5.097656 -6.148438 4.804688 -6.1875 4.515625 -6.1875 C 3.765625 -6.1875 3.171875 -5.953125 2.734375 -5.484375 C 2.285156 -5.003906 2.0625 -4.3125 2.0625 -3.40625 C 2.0625 -2.613281 2.222656 -2.039062 2.546875 -1.6875 C 2.878906 -1.332031 3.398438 -1.15625 4.109375 -1.15625 C 4.710938 -1.15625 5.34375 -1.257812 6 -1.46875 C 6.019531 -1.476562 6.039062 -1.484375 6.0625 -1.484375 C 6.082031 -1.492188 6.097656 -1.5 6.109375 -1.5 C 6.128906 -1.507812 6.144531 -1.515625 6.15625 -1.515625 C 6.164062 -1.515625 6.171875 -1.519531 6.171875 -1.53125 L 6.5625 -1.796875 L 6.71875 -1.3125 L 6.953125 -0.515625 L 7.015625 -0.25 L 6.78125 -0.109375 C 6.394531 0.128906 5.722656 0.296875 4.765625 0.390625 C 4.492188 0.410156 4.210938 0.421875 3.921875 0.421875 C 3.015625 0.421875 2.253906 0.191406 1.640625 -0.265625 C 0.796875 -0.910156 0.375 -1.941406 0.375 -3.359375 C 0.375 -4.054688 0.46875 -4.675781 0.65625 -5.21875 C 0.84375 -5.757812 1.132812 -6.226562 1.53125 -6.625 C 2.300781 -7.394531 3.289062 -7.78125 4.5 -7.78125 C 4.875 -7.78125 5.273438 -7.734375 5.703125 -7.640625 C 6.160156 -7.523438 6.519531 -7.347656 6.78125 -7.109375 L 6.90625 -7 L 6.90625 -4.59375 L 6.59375 -4.546875 L 6.109375 -4.5 L 5.875 -4.453125 L 5.46875 -4.390625 L 5.453125 -4.796875 Z M 5.390625 -6.078125 "/></g></g></g><g fill="#d9d9d9" fill-opacity="1"><g transform="translate(331.108262, 82.074024)"><g><path d="M 2.125 -3.375 C 2.125 -2.59375 2.289062 -2.023438 2.625 -1.671875 C 2.957031 -1.328125 3.492188 -1.15625 4.234375 -1.15625 C 4.890625 -1.15625 5.484375 -1.242188 6.015625 -1.421875 C 6.078125 -1.441406 6.128906 -1.460938 6.171875 -1.484375 C 6.222656 -1.503906 6.257812 -1.515625 6.28125 -1.515625 L 6.6875 -1.71875 L 6.796875 -1.296875 L 7.015625 -0.515625 L 7.09375 -0.234375 L 6.859375 -0.109375 C 6.460938 0.128906 5.785156 0.296875 4.828125 0.390625 C 4.691406 0.398438 4.554688 0.40625 4.421875 0.40625 C 4.285156 0.414062 4.144531 0.421875 4 0.421875 C 3.09375 0.421875 2.332031 0.191406 1.71875 -0.265625 C 0.863281 -0.890625 0.4375 -1.914062 0.4375 -3.34375 C 0.4375 -4.03125 0.53125 -4.644531 0.71875 -5.1875 C 0.90625 -5.738281 1.191406 -6.210938 1.578125 -6.609375 C 2.316406 -7.378906 3.222656 -7.765625 4.296875 -7.765625 C 5.390625 -7.765625 6.21875 -7.40625 6.78125 -6.6875 C 7.207031 -6.113281 7.421875 -5.378906 7.421875 -4.484375 C 7.421875 -4.273438 7.410156 -4.054688 7.390625 -3.828125 L 7.359375 -3.5 L 2.125 -3.5 Z M 4.359375 -6.125 C 3.835938 -6.125 3.398438 -5.96875 3.046875 -5.65625 C 2.796875 -5.445312 2.59375 -5.191406 2.4375 -4.890625 L 5.765625 -4.890625 C 5.753906 -5.066406 5.71875 -5.222656 5.65625 -5.359375 C 5.601562 -5.492188 5.535156 -5.609375 5.453125 -5.703125 C 5.378906 -5.796875 5.289062 -5.867188 5.1875 -5.921875 C 5.082031 -5.984375 4.96875 -6.03125 4.84375 -6.0625 L 4.8125 -6.0625 C 4.75 -6.082031 4.675781 -6.097656 4.59375 -6.109375 C 4.519531 -6.117188 4.441406 -6.125 4.359375 -6.125 Z M 4.359375 -6.125 "/></g></g></g></svg>