<svg xmlns="http://www.w3.org/2000/svg" xmlns:xlink="http://www.w3.org/1999/xlink" width="1920" zoomAndPan="magnify" viewBox="0 0 1440 809.999993" height="1080" preserveAspectRatio="xMidYMid meet" version="1.0"><defs><g/><clipPath id="0e70ff23c2"><path d="M 163 304 L 377.78125 304 L 377.78125 538.332031 L 163 538.332031 Z M 163 304 " clip-rule="nonzero"/></clipPath></defs><path fill="#797c7c" d="M 304.144531 349.242188 L 274.457031 376.863281 L 246.914062 321.300781 L 261.167969 289.339844 C 264.875 282.855469 270.65625 282.929688 274.273438 289.339844 Z M 304.144531 349.242188 " fill-opacity="1" fill-rule="nonzero"/><path fill="#797c7c" d="M 246.914062 321.300781 L 274.457031 376.863281 L 163.515625 480.066406 Z M 246.914062 321.300781 " fill-opacity="1" fill-rule="nonzero"/><g clip-path="url(#0e70ff23c2)"><path fill="#797c7c" d="M 336.613281 307.027344 C 341.914062 301.929688 347.402344 303.671875 348.800781 310.890625 L 377.679688 478.695312 L 281.957031 536.160156 C 278.621094 538.015625 269.722656 538.8125 269.722656 538.8125 C 269.722656 538.8125 261.621094 537.847656 258.535156 536.03125 L 163.515625 480.066406 Z M 336.613281 307.027344 " fill-opacity="1" fill-rule="nonzero"/></g><path fill="#797c7c" d="M 246.914062 321.300781 L 163.523438 480.066406 L 200.664062 248.03125 C 202.035156 240.800781 206.148438 240.109375 209.820312 246.484375 Z M 246.914062 321.300781 " fill-opacity="1" fill-rule="nonzero"/><g fill="#797c7c" fill-opacity="1"><g transform="translate(417.936897, 469.596811)"><g><path d="M 7.828125 -139.5 C 7.828125 -142.28125 8.851562 -144.679688 10.90625 -146.703125 C 12.957031 -148.722656 15.410156 -149.734375 18.265625 -149.734375 L 103.375 -149.84375 L 103.46875 -149.84375 C 106.320312 -149.84375 108.773438 -148.8125 110.828125 -146.75 C 112.890625 -144.695312 113.921875 -142.242188 113.921875 -139.390625 C 113.921875 -136.535156 112.890625 -134.082031 110.828125 -132.03125 C 108.773438 -129.976562 106.320312 -128.953125 103.46875 -128.953125 L 103.375 -128.953125 L 28.71875 -128.84375 L 28.8125 -90.84375 L 83.21875 -91.359375 L 84.375 -91.359375 C 86.945312 -91.359375 89.15625 -90.296875 91 -88.171875 C 92.84375 -86.054688 93.765625 -83.847656 93.765625 -81.546875 C 93.765625 -78.484375 92.789062 -75.875 90.84375 -73.71875 C 88.894531 -71.5625 86.390625 -70.484375 83.328125 -70.484375 L 28.921875 -69.953125 L 29.03125 -9.1875 L 29.03125 -8.984375 C 29.03125 -6.191406 28 -3.785156 25.9375 -1.765625 C 23.882812 0.242188 21.429688 1.25 18.578125 1.25 C 15.734375 1.25 13.28125 0.242188 11.21875 -1.765625 C 9.164062 -3.785156 8.140625 -6.191406 8.140625 -8.984375 L 8.140625 -9.078125 Z M 7.828125 -139.5 "/></g></g></g><g fill="#797c7c" fill-opacity="1"><g transform="translate(539.678763, 469.596811)"><g><path d="M 21.203125 -125.09375 C 17.992188 -125.09375 15.378906 -126.066406 13.359375 -128.015625 C 11.347656 -129.960938 10.304688 -132.429688 10.234375 -135.421875 L 10.03125 -143.359375 C 10.03125 -145.796875 11.160156 -147.882812 13.421875 -149.625 C 15.679688 -151.363281 17.992188 -152.234375 20.359375 -152.234375 C 23.285156 -152.234375 25.738281 -151.222656 27.71875 -149.203125 C 29.707031 -147.191406 30.734375 -144.757812 30.796875 -141.90625 L 30.90625 -135.640625 C 30.90625 -132.847656 29.984375 -130.390625 28.140625 -128.265625 C 26.296875 -126.148438 23.984375 -125.09375 21.203125 -125.09375 Z M 9.921875 -105.359375 C 9.921875 -107.796875 10.976562 -109.898438 13.09375 -111.671875 C 15.21875 -113.441406 17.429688 -114.328125 19.734375 -114.328125 C 22.867188 -114.328125 25.492188 -113.40625 27.609375 -111.5625 C 29.734375 -109.71875 30.796875 -107.335938 30.796875 -104.421875 L 30.796875 -104.3125 L 31.015625 -7.625 C 31.015625 -4.84375 29.984375 -2.472656 27.921875 -0.515625 C 25.867188 1.429688 23.414062 2.40625 20.5625 2.40625 C 17.644531 2.40625 15.175781 1.414062 13.15625 -0.5625 C 11.132812 -2.550781 10.125 -4.941406 10.125 -7.734375 Z M 9.921875 -105.359375 "/></g></g></g><g fill="#797c7c" fill-opacity="1"><g transform="translate(580.607418, 469.596811)"><g><path d="M 79.671875 -101.171875 C 79.671875 -95.679688 76.988281 -92.585938 71.625 -91.890625 C 70.375 -91.742188 67.832031 -92.398438 64 -93.859375 C 60.175781 -95.328125 57.21875 -96.0625 55.125 -96.0625 C 46.5625 -96.0625 40.363281 -92.925781 36.53125 -86.65625 C 32.707031 -80.394531 30.796875 -71.972656 30.796875 -61.390625 L 30.796875 -7.515625 C 30.796875 -4.453125 29.859375 -2.015625 27.984375 -0.203125 C 26.109375 1.597656 23.566406 2.5 20.359375 2.5 C 17.160156 2.5 14.617188 1.597656 12.734375 -0.203125 C 10.859375 -2.015625 9.921875 -4.488281 9.921875 -7.625 L 9.921875 -103.796875 C 9.921875 -106.992188 10.71875 -109.582031 12.3125 -111.5625 C 13.914062 -113.550781 16.039062 -114.546875 18.6875 -114.546875 C 20.632812 -114.546875 22.582031 -113.796875 24.53125 -112.296875 C 26.488281 -110.796875 27.882812 -108.550781 28.71875 -105.5625 L 29.765625 -98.046875 C 31.359375 -101.523438 34.675781 -105.125 39.71875 -108.84375 C 44.769531 -112.570312 49.941406 -114.4375 55.234375 -114.4375 C 63.242188 -114.4375 69.316406 -113.515625 73.453125 -111.671875 C 77.597656 -109.828125 79.671875 -106.328125 79.671875 -101.171875 Z M 79.671875 -101.171875 "/></g></g></g><g fill="#797c7c" fill-opacity="1"><g transform="translate(657.661732, 469.596811)"><g><path d="M 60.765625 -114.015625 C 69.890625 -114.015625 78.363281 -111.734375 86.1875 -107.171875 C 94.019531 -102.617188 100.269531 -96.390625 104.9375 -88.484375 C 109.601562 -80.585938 111.9375 -72.007812 111.9375 -62.75 C 111.9375 -60.726562 111.832031 -58.742188 111.625 -56.796875 C 111.34375 -54.222656 110.175781 -52.046875 108.125 -50.265625 C 106.070312 -48.492188 103.753906 -47.609375 101.171875 -47.609375 L 28.1875 -47.515625 C 30.070312 -39.640625 34.195312 -32.863281 40.5625 -27.1875 C 46.9375 -21.519531 54.160156 -18.6875 62.234375 -18.6875 C 67.867188 -18.6875 73.085938 -20.0625 77.890625 -22.8125 C 82.691406 -25.5625 86.519531 -29.023438 89.375 -33.203125 C 90.21875 -34.523438 91.472656 -35.640625 93.140625 -36.546875 C 94.804688 -37.453125 96.441406 -37.90625 98.046875 -37.90625 C 100.898438 -37.90625 103.351562 -36.859375 105.40625 -34.765625 C 107.457031 -32.679688 108.484375 -30.210938 108.484375 -27.359375 C 108.484375 -25.128906 107.859375 -23.144531 106.609375 -21.40625 C 101.941406 -14.582031 95.78125 -8.976562 88.125 -4.59375 C 80.46875 -0.207031 71.941406 1.984375 62.546875 1.984375 C 52.097656 1.984375 42.539062 -0.710938 33.875 -6.109375 C 25.21875 -11.503906 18.453125 -18.691406 13.578125 -27.671875 C 8.703125 -36.648438 6.265625 -46.328125 6.265625 -56.703125 C 6.265625 -66.722656 8.664062 -76.117188 13.46875 -84.890625 C 18.269531 -93.660156 24.878906 -100.707031 33.296875 -106.03125 C 41.722656 -111.351562 50.878906 -114.015625 60.765625 -114.015625 Z M 90.421875 -68.5 C 89.023438 -75.457031 85.5625 -81.300781 80.03125 -86.03125 C 74.5 -90.769531 68.078125 -93.140625 60.765625 -93.140625 C 53.460938 -93.140625 46.851562 -90.738281 40.9375 -85.9375 C 35.019531 -81.132812 31.015625 -75.285156 28.921875 -68.390625 Z M 90.421875 -68.5 "/></g></g></g><g fill="#797c7c" fill-opacity="1"><g transform="translate(775.749278, 469.596811)"><g><path d="M 121.234375 -56.28125 C 121.234375 -46.050781 118.878906 -36.515625 114.171875 -27.671875 C 109.472656 -18.828125 102.910156 -11.707031 94.484375 -6.3125 C 86.066406 -0.914062 76.742188 1.78125 66.515625 1.78125 C 59.898438 1.78125 53.351562 0.109375 46.875 -3.234375 C 40.40625 -6.578125 35.222656 -11.035156 31.328125 -16.609375 L 30.078125 -8.140625 C 29.023438 -1.179688 25.960938 2.296875 20.890625 2.296875 C 18.035156 2.296875 15.578125 1.269531 13.515625 -0.78125 C 11.460938 -2.832031 10.4375 -5.285156 10.4375 -8.140625 L 10.4375 -141.484375 C 10.4375 -144.335938 11.460938 -146.789062 13.515625 -148.84375 C 15.578125 -150.894531 18.035156 -151.921875 20.890625 -151.921875 C 23.742188 -151.921875 26.195312 -150.894531 28.25 -148.84375 C 30.300781 -146.789062 31.328125 -144.335938 31.328125 -141.484375 L 31.328125 -97.53125 C 41.066406 -108.875 52.550781 -114.546875 65.78125 -114.546875 C 72.882812 -114.546875 79.738281 -113.1875 86.34375 -110.46875 C 92.957031 -107.757812 98.804688 -103.929688 103.890625 -98.984375 C 109.523438 -93.421875 113.820312 -86.910156 116.78125 -79.453125 C 119.75 -72.003906 121.234375 -64.28125 121.234375 -56.28125 Z M 66.71875 -19.109375 C 76.1875 -19.109375 84.175781 -22.8125 90.6875 -30.21875 C 97.195312 -37.632812 100.453125 -46.320312 100.453125 -56.28125 C 100.453125 -66.238281 97.144531 -75.007812 90.53125 -82.59375 C 83.914062 -90.175781 75.804688 -93.96875 66.203125 -93.96875 C 56.390625 -93.96875 48.242188 -90.332031 41.765625 -83.0625 C 35.296875 -75.789062 32.0625 -67.035156 32.0625 -56.796875 C 32.0625 -51.929688 32.910156 -47.144531 34.609375 -42.4375 C 36.316406 -37.738281 38.738281 -33.6875 41.875 -30.28125 C 45 -26.800781 48.789062 -24.066406 53.25 -22.078125 C 57.707031 -20.097656 62.195312 -19.109375 66.71875 -19.109375 Z M 66.71875 -19.109375 "/></g></g></g><g fill="#797c7c" fill-opacity="1"><g transform="translate(902.189611, 469.596811)"><g><path d="M 65.046875 -114.859375 C 72.359375 -114.859375 79.582031 -112.769531 86.71875 -108.59375 C 93.851562 -104.414062 98.914062 -99.71875 101.90625 -94.5 L 103.0625 -104.515625 C 103.0625 -107.441406 103.910156 -109.914062 105.609375 -111.9375 C 107.316406 -113.957031 109.5625 -114.96875 112.34375 -114.96875 C 115.195312 -114.96875 117.648438 -113.9375 119.703125 -111.875 C 121.765625 -109.820312 122.796875 -107.367188 122.796875 -104.515625 L 122.796875 -104.3125 L 122.578125 -7.625 C 122.578125 -4.769531 121.550781 -2.316406 119.5 -0.265625 C 117.445312 1.785156 114.992188 2.8125 112.140625 2.8125 C 109.359375 2.8125 107.113281 1.804688 105.40625 -0.203125 C 103.695312 -2.222656 102.84375 -4.695312 102.84375 -7.625 L 101.703125 -15.96875 C 98.222656 -10.050781 93.070312 -5.507812 86.25 -2.34375 C 79.425781 0.820312 72.289062 2.40625 64.84375 2.40625 C 54.539062 2.40625 45.003906 -0.269531 36.234375 -5.625 C 27.460938 -10.988281 20.535156 -18.144531 15.453125 -27.09375 C 10.367188 -36.039062 7.828125 -45.664062 7.828125 -55.96875 C 7.828125 -66.195312 10.296875 -75.816406 15.234375 -84.828125 C 20.179688 -93.847656 27.09375 -101.109375 35.96875 -106.609375 C 44.84375 -112.109375 54.535156 -114.859375 65.046875 -114.859375 Z M 101.078125 -56.171875 C 101.078125 -66.472656 97.59375 -75.347656 90.625 -82.796875 C 83.664062 -90.242188 75.070312 -93.96875 64.84375 -93.96875 C 54.75 -93.96875 46.164062 -90.226562 39.09375 -82.75 C 32.03125 -75.269531 28.5 -66.445312 28.5 -56.28125 C 28.5 -46.050781 32.066406 -37.191406 39.203125 -29.703125 C 46.335938 -22.222656 54.921875 -18.484375 64.953125 -18.484375 C 74.898438 -18.484375 83.40625 -22.222656 90.46875 -29.703125 C 97.539062 -37.191406 101.078125 -46.015625 101.078125 -56.171875 Z M 101.078125 -56.171875 "/></g></g></g><g fill="#797c7c" fill-opacity="1"><g transform="translate(1035.41656, 469.596811)"><g><path d="M 62.859375 -114.546875 C 72.742188 -114.546875 81.757812 -112.367188 89.90625 -108.015625 C 98.050781 -103.671875 104.070312 -97.804688 107.96875 -90.421875 C 108.800781 -88.960938 109.21875 -87.289062 109.21875 -85.40625 C 109.21875 -82.550781 108.191406 -80.097656 106.140625 -78.046875 C 104.085938 -75.992188 101.632812 -74.96875 98.78125 -74.96875 C 97.039062 -74.96875 95.25 -75.523438 93.40625 -76.640625 C 91.5625 -77.753906 90.253906 -79.113281 89.484375 -80.71875 C 84.816406 -89.34375 75.90625 -93.65625 62.75 -93.65625 C 59.757812 -93.65625 56.628906 -93.375 53.359375 -92.8125 C 50.085938 -92.257812 46.882812 -91.425781 43.75 -90.3125 C 40.613281 -89.207031 38.035156 -87.644531 36.015625 -85.625 C 34.003906 -83.601562 33 -81.304688 33 -78.734375 C 33 -77.265625 33.46875 -75.921875 34.40625 -74.703125 C 35.34375 -73.484375 36.75 -72.457031 38.625 -71.625 C 40.507812 -70.789062 42.390625 -70.078125 44.265625 -69.484375 C 46.148438 -68.890625 48.5 -68.382812 51.3125 -67.96875 C 54.132812 -67.550781 56.429688 -67.238281 58.203125 -67.03125 C 59.984375 -66.820312 62.265625 -66.59375 65.046875 -66.34375 C 67.835938 -66.101562 69.613281 -65.953125 70.375 -65.890625 C 75.039062 -65.398438 79.179688 -64.789062 82.796875 -64.0625 C 86.421875 -63.332031 90.21875 -62.203125 94.1875 -60.671875 C 98.15625 -59.140625 101.441406 -57.289062 104.046875 -55.125 C 106.660156 -52.96875 108.816406 -50.128906 110.515625 -46.609375 C 112.222656 -43.097656 113.078125 -39.082031 113.078125 -34.5625 C 113.078125 -29.6875 112.132812 -25.195312 110.25 -21.09375 C 108.375 -16.988281 105.851562 -13.539062 102.6875 -10.75 C 99.519531 -7.96875 95.796875 -5.617188 91.515625 -3.703125 C 87.234375 -1.785156 82.722656 -0.378906 77.984375 0.515625 C 73.253906 1.421875 68.351562 1.875 63.28125 1.875 C 51.71875 1.875 41.304688 -0.421875 32.046875 -5.015625 C 22.796875 -9.609375 16.007812 -16.113281 11.6875 -24.53125 C 10.851562 -26.207031 10.4375 -27.84375 10.4375 -29.4375 C 10.4375 -32.289062 11.460938 -34.742188 13.515625 -36.796875 C 15.578125 -38.859375 18.035156 -39.890625 20.890625 -39.890625 C 22.691406 -39.890625 24.515625 -39.3125 26.359375 -38.15625 C 28.203125 -37.007812 29.507812 -35.640625 30.28125 -34.046875 C 35.425781 -24.015625 46.390625 -19 63.171875 -19 C 66.515625 -19 69.785156 -19.273438 72.984375 -19.828125 C 76.191406 -20.390625 79.289062 -21.226562 82.28125 -22.34375 C 85.269531 -23.457031 87.671875 -25.078125 89.484375 -27.203125 C 91.296875 -29.328125 92.203125 -31.816406 92.203125 -34.671875 C 92.203125 -35.921875 91.957031 -37.050781 91.46875 -38.0625 C 90.976562 -39.070312 90.160156 -39.90625 89.015625 -40.5625 C 87.867188 -41.226562 86.820312 -41.800781 85.875 -42.28125 C 84.9375 -42.769531 83.492188 -43.171875 81.546875 -43.484375 C 79.597656 -43.796875 78.171875 -44.019531 77.265625 -44.15625 C 76.359375 -44.300781 74.753906 -44.476562 72.453125 -44.6875 C 70.160156 -44.894531 68.738281 -45.035156 68.1875 -45.109375 C 53.707031 -46.640625 43.300781 -48.378906 36.96875 -50.328125 C 22.28125 -54.710938 14.097656 -62.578125 12.421875 -73.921875 C 12.210938 -75.453125 12.109375 -77.054688 12.109375 -78.734375 C 12.109375 -84.710938 13.640625 -90.085938 16.703125 -94.859375 C 19.765625 -99.628906 23.785156 -103.390625 28.765625 -106.140625 C 33.742188 -108.890625 39.140625 -110.976562 44.953125 -112.40625 C 50.765625 -113.832031 56.734375 -114.546875 62.859375 -114.546875 Z M 62.859375 -114.546875 "/></g></g></g><g fill="#797c7c" fill-opacity="1"><g transform="translate(1158.933416, 469.596811)"><g><path d="M 60.765625 -114.015625 C 69.890625 -114.015625 78.363281 -111.734375 86.1875 -107.171875 C 94.019531 -102.617188 100.269531 -96.390625 104.9375 -88.484375 C 109.601562 -80.585938 111.9375 -72.007812 111.9375 -62.75 C 111.9375 -60.726562 111.832031 -58.742188 111.625 -56.796875 C 111.34375 -54.222656 110.175781 -52.046875 108.125 -50.265625 C 106.070312 -48.492188 103.753906 -47.609375 101.171875 -47.609375 L 28.1875 -47.515625 C 30.070312 -39.640625 34.195312 -32.863281 40.5625 -27.1875 C 46.9375 -21.519531 54.160156 -18.6875 62.234375 -18.6875 C 67.867188 -18.6875 73.085938 -20.0625 77.890625 -22.8125 C 82.691406 -25.5625 86.519531 -29.023438 89.375 -33.203125 C 90.21875 -34.523438 91.472656 -35.640625 93.140625 -36.546875 C 94.804688 -37.453125 96.441406 -37.90625 98.046875 -37.90625 C 100.898438 -37.90625 103.351562 -36.859375 105.40625 -34.765625 C 107.457031 -32.679688 108.484375 -30.210938 108.484375 -27.359375 C 108.484375 -25.128906 107.859375 -23.144531 106.609375 -21.40625 C 101.941406 -14.582031 95.78125 -8.976562 88.125 -4.59375 C 80.46875 -0.207031 71.941406 1.984375 62.546875 1.984375 C 52.097656 1.984375 42.539062 -0.710938 33.875 -6.109375 C 25.21875 -11.503906 18.453125 -18.691406 13.578125 -27.671875 C 8.703125 -36.648438 6.265625 -46.328125 6.265625 -56.703125 C 6.265625 -66.722656 8.664062 -76.117188 13.46875 -84.890625 C 18.269531 -93.660156 24.878906 -100.707031 33.296875 -106.03125 C 41.722656 -111.351562 50.878906 -114.015625 60.765625 -114.015625 Z M 90.421875 -68.5 C 89.023438 -75.457031 85.5625 -81.300781 80.03125 -86.03125 C 74.5 -90.769531 68.078125 -93.140625 60.765625 -93.140625 C 53.460938 -93.140625 46.851562 -90.738281 40.9375 -85.9375 C 35.019531 -81.132812 31.015625 -75.285156 28.921875 -68.390625 Z M 90.421875 -68.5 "/></g></g></g></svg>