<svg xmlns="http://www.w3.org/2000/svg" xmlns:xlink="http://www.w3.org/1999/xlink" width="1920" zoomAndPan="magnify" viewBox="0 0 1440 809.999993" height="1080" preserveAspectRatio="xMidYMid meet" version="1.0"><defs><g/><clipPath id="9f947babd3"><path d="M 8 276 L 282.515625 276 L 282.515625 575.449219 L 8 575.449219 Z M 8 276 " clip-rule="nonzero"/></clipPath></defs><path fill="#797c7c" d="M 188.378906 333.722656 L 150.425781 369.03125 L 115.214844 298 L 133.4375 257.144531 C 138.175781 248.851562 145.570312 248.945312 150.191406 257.144531 Z M 188.378906 333.722656 " fill-opacity="1" fill-rule="nonzero"/><path fill="#797c7c" d="M 115.214844 298 L 150.425781 369.03125 L 8.597656 500.964844 Z M 115.214844 298 " fill-opacity="1" fill-rule="nonzero"/><g clip-path="url(#9f947babd3)"><path fill="#797c7c" d="M 229.882812 279.75 C 236.660156 273.234375 243.675781 275.460938 245.464844 284.691406 L 282.386719 499.210938 L 160.011719 572.671875 C 155.746094 575.042969 144.371094 576.0625 144.371094 576.0625 C 144.371094 576.0625 134.015625 574.832031 130.070312 572.507812 L 8.597656 500.964844 Z M 229.882812 279.75 " fill-opacity="1" fill-rule="nonzero"/></g><path fill="#797c7c" d="M 115.214844 298 L 8.609375 500.964844 L 56.089844 204.335938 C 57.84375 195.09375 63.101562 194.203125 67.796875 202.355469 Z M 115.214844 298 " fill-opacity="1" fill-rule="nonzero"/><g fill="#797c7c" fill-opacity="1"><g transform="translate(333.848104, 487.579376)"><g><path d="M 10.015625 -178.328125 C 10.015625 -181.878906 11.328125 -184.945312 13.953125 -187.53125 C 16.578125 -190.113281 19.710938 -191.40625 23.359375 -191.40625 L 132.140625 -191.53125 L 132.28125 -191.53125 C 135.925781 -191.53125 139.0625 -190.21875 141.6875 -187.59375 C 144.3125 -184.96875 145.625 -181.832031 145.625 -178.1875 C 145.625 -174.539062 144.3125 -171.40625 141.6875 -168.78125 C 139.0625 -166.15625 135.925781 -164.84375 132.28125 -164.84375 L 132.140625 -164.84375 L 36.703125 -164.703125 L 36.84375 -116.125 L 106.375 -116.796875 L 107.84375 -116.796875 C 111.132812 -116.796875 113.957031 -115.4375 116.3125 -112.71875 C 118.675781 -110.007812 119.859375 -107.1875 119.859375 -104.25 C 119.859375 -100.332031 118.613281 -96.992188 116.125 -94.234375 C 113.632812 -91.472656 110.429688 -90.09375 106.515625 -90.09375 L 36.96875 -89.421875 L 37.109375 -11.75 L 37.109375 -11.484375 C 37.109375 -7.921875 35.796875 -4.847656 33.171875 -2.265625 C 30.546875 0.316406 27.40625 1.609375 23.75 1.609375 C 20.101562 1.609375 16.96875 0.316406 14.34375 -2.265625 C 11.71875 -4.847656 10.40625 -7.921875 10.40625 -11.484375 L 10.40625 -11.609375 Z M 10.015625 -178.328125 "/></g></g></g><g fill="#797c7c" fill-opacity="1"><g transform="translate(489.480632, 487.579376)"><g><path d="M 27.09375 -159.90625 C 23 -159.90625 19.660156 -161.148438 17.078125 -163.640625 C 14.503906 -166.128906 13.171875 -169.289062 13.078125 -173.125 L 12.8125 -183.265625 C 12.8125 -186.378906 14.253906 -189.046875 17.140625 -191.265625 C 20.035156 -193.492188 23 -194.609375 26.03125 -194.609375 C 29.769531 -194.609375 32.90625 -193.316406 35.4375 -190.734375 C 37.96875 -188.148438 39.28125 -185.035156 39.375 -181.390625 L 39.515625 -173.390625 C 39.515625 -169.828125 38.332031 -166.6875 35.96875 -163.96875 C 33.613281 -161.257812 30.65625 -159.90625 27.09375 -159.90625 Z M 12.6875 -134.671875 C 12.6875 -137.785156 14.039062 -140.476562 16.75 -142.75 C 19.46875 -145.019531 22.296875 -146.15625 25.234375 -146.15625 C 29.234375 -146.15625 32.585938 -144.972656 35.296875 -142.609375 C 38.015625 -140.253906 39.375 -137.207031 39.375 -133.46875 L 39.375 -133.34375 L 39.640625 -9.75 C 39.640625 -6.1875 38.328125 -3.160156 35.703125 -0.671875 C 33.078125 1.816406 29.941406 3.0625 26.296875 3.0625 C 22.554688 3.0625 19.394531 1.796875 16.8125 -0.734375 C 14.238281 -3.265625 12.953125 -6.3125 12.953125 -9.875 Z M 12.6875 -134.671875 "/></g></g></g><g fill="#797c7c" fill-opacity="1"><g transform="translate(541.80306, 487.579376)"><g><path d="M 101.84375 -129.34375 C 101.84375 -122.3125 98.414062 -118.347656 91.5625 -117.453125 C 89.957031 -117.273438 86.707031 -118.117188 81.8125 -119.984375 C 76.925781 -121.859375 73.144531 -122.796875 70.46875 -122.796875 C 59.53125 -122.796875 51.613281 -118.789062 46.71875 -110.78125 C 41.820312 -102.769531 39.375 -92.003906 39.375 -78.484375 L 39.375 -9.609375 C 39.375 -5.691406 38.171875 -2.578125 35.765625 -0.265625 C 33.367188 2.046875 30.125 3.203125 26.03125 3.203125 C 21.9375 3.203125 18.6875 2.046875 16.28125 -0.265625 C 13.882812 -2.578125 12.6875 -5.738281 12.6875 -9.75 L 12.6875 -132.671875 C 12.6875 -136.765625 13.707031 -140.078125 15.75 -142.609375 C 17.789062 -145.148438 20.503906 -146.421875 23.890625 -146.421875 C 26.378906 -146.421875 28.867188 -145.460938 31.359375 -143.546875 C 33.859375 -141.640625 35.640625 -138.769531 36.703125 -134.9375 L 38.046875 -125.328125 C 40.085938 -129.785156 44.332031 -134.394531 50.78125 -139.15625 C 57.238281 -143.914062 63.847656 -146.296875 70.609375 -146.296875 C 80.835938 -146.296875 88.597656 -145.113281 93.890625 -142.75 C 99.191406 -140.394531 101.84375 -135.925781 101.84375 -129.34375 Z M 101.84375 -129.34375 "/></g></g></g><g fill="#797c7c" fill-opacity="1"><g transform="translate(640.307858, 487.579376)"><g><path d="M 77.6875 -145.75 C 89.34375 -145.75 100.175781 -142.832031 110.1875 -137 C 120.195312 -131.175781 128.179688 -123.210938 134.140625 -113.109375 C 140.109375 -103.015625 143.09375 -92.050781 143.09375 -80.21875 C 143.09375 -77.632812 142.957031 -75.097656 142.6875 -72.609375 C 142.332031 -69.316406 140.84375 -66.535156 138.21875 -64.265625 C 135.59375 -61.992188 132.632812 -60.859375 129.34375 -60.859375 L 36.03125 -60.734375 C 38.4375 -50.679688 43.707031 -42.023438 51.84375 -34.765625 C 59.988281 -27.515625 69.222656 -23.890625 79.546875 -23.890625 C 86.753906 -23.890625 93.425781 -25.644531 99.5625 -29.15625 C 105.707031 -32.675781 110.601562 -37.109375 114.25 -42.453125 C 115.320312 -44.140625 116.925781 -45.5625 119.0625 -46.71875 C 121.195312 -47.875 123.285156 -48.453125 125.328125 -48.453125 C 128.984375 -48.453125 132.125 -47.113281 134.75 -44.4375 C 137.375 -41.769531 138.6875 -38.613281 138.6875 -34.96875 C 138.6875 -32.125 137.882812 -29.585938 136.28125 -27.359375 C 130.320312 -18.640625 122.445312 -11.476562 112.65625 -5.875 C 102.863281 -0.269531 91.960938 2.53125 79.953125 2.53125 C 66.609375 2.53125 54.394531 -0.914062 43.3125 -7.8125 C 32.226562 -14.707031 23.570312 -23.894531 17.34375 -35.375 C 11.125 -46.851562 8.015625 -59.222656 8.015625 -72.484375 C 8.015625 -85.296875 11.082031 -97.304688 17.21875 -108.515625 C 23.351562 -119.722656 31.804688 -128.726562 42.578125 -135.53125 C 53.347656 -142.34375 65.050781 -145.75 77.6875 -145.75 Z M 115.59375 -87.5625 C 113.8125 -96.457031 109.382812 -103.929688 102.3125 -109.984375 C 95.238281 -116.035156 87.03125 -119.0625 77.6875 -119.0625 C 68.34375 -119.0625 59.890625 -115.988281 52.328125 -109.84375 C 44.765625 -103.707031 39.644531 -96.234375 36.96875 -87.421875 Z M 115.59375 -87.5625 "/></g></g></g><g fill="#797c7c" fill-opacity="1"><g transform="translate(791.268771, 487.579376)"><g><path d="M 154.96875 -71.9375 C 154.96875 -58.863281 151.960938 -46.675781 145.953125 -35.375 C 139.953125 -24.070312 131.566406 -14.972656 120.796875 -8.078125 C 110.023438 -1.179688 98.101562 2.265625 85.03125 2.265625 C 76.570312 2.265625 68.203125 0.128906 59.921875 -4.140625 C 51.648438 -8.410156 45.023438 -14.101562 40.046875 -21.21875 L 38.4375 -10.40625 C 37.101562 -1.507812 33.1875 2.9375 26.6875 2.9375 C 23.039062 2.9375 19.90625 1.625 17.28125 -1 C 14.65625 -3.625 13.34375 -6.757812 13.34375 -10.40625 L 13.34375 -180.859375 C 13.34375 -184.503906 14.65625 -187.640625 17.28125 -190.265625 C 19.90625 -192.890625 23.039062 -194.203125 26.6875 -194.203125 C 30.34375 -194.203125 33.484375 -192.890625 36.109375 -190.265625 C 38.734375 -187.640625 40.046875 -184.503906 40.046875 -180.859375 L 40.046875 -124.671875 C 52.503906 -139.171875 67.1875 -146.421875 84.09375 -146.421875 C 93.164062 -146.421875 101.925781 -144.6875 110.375 -141.21875 C 118.832031 -137.75 126.3125 -132.851562 132.8125 -126.53125 C 140.019531 -119.414062 145.515625 -111.097656 149.296875 -101.578125 C 153.078125 -92.054688 154.96875 -82.175781 154.96875 -71.9375 Z M 85.296875 -24.421875 C 97.390625 -24.421875 107.597656 -29.160156 115.921875 -38.640625 C 124.242188 -48.117188 128.40625 -59.21875 128.40625 -71.9375 C 128.40625 -84.664062 124.175781 -95.878906 115.71875 -105.578125 C 107.269531 -115.273438 96.90625 -120.125 84.625 -120.125 C 72.070312 -120.125 61.660156 -115.472656 53.390625 -106.171875 C 45.117188 -96.878906 40.984375 -85.691406 40.984375 -72.609375 C 40.984375 -66.378906 42.070312 -60.257812 44.25 -54.25 C 46.425781 -48.25 49.519531 -43.066406 53.53125 -38.703125 C 57.53125 -34.253906 62.375 -30.757812 68.0625 -28.21875 C 73.757812 -25.6875 79.503906 -24.421875 85.296875 -24.421875 Z M 85.296875 -24.421875 "/></g></g></g><g fill="#797c7c" fill-opacity="1"><g transform="translate(952.907732, 487.579376)"><g><path d="M 83.15625 -146.828125 C 92.5 -146.828125 101.726562 -144.15625 110.84375 -138.8125 C 119.96875 -133.476562 126.441406 -127.472656 130.265625 -120.796875 L 131.734375 -133.609375 C 131.734375 -137.347656 132.820312 -140.503906 135 -143.078125 C 137.1875 -145.660156 140.0625 -146.953125 143.625 -146.953125 C 147.269531 -146.953125 150.40625 -145.640625 153.03125 -143.015625 C 155.65625 -140.390625 156.96875 -137.253906 156.96875 -133.609375 L 156.96875 -133.34375 L 156.703125 -9.75 C 156.703125 -6.09375 155.390625 -2.953125 152.765625 -0.328125 C 150.140625 2.296875 147.003906 3.609375 143.359375 3.609375 C 139.796875 3.609375 136.921875 2.316406 134.734375 -0.265625 C 132.554688 -2.847656 131.46875 -6.007812 131.46875 -9.75 L 130 -20.421875 C 125.550781 -12.859375 118.96875 -7.050781 110.25 -3 C 101.53125 1.039062 92.410156 3.0625 82.890625 3.0625 C 69.722656 3.0625 57.53125 -0.359375 46.3125 -7.203125 C 35.101562 -14.054688 26.25 -23.195312 19.75 -34.625 C 13.257812 -46.0625 10.015625 -58.367188 10.015625 -71.546875 C 10.015625 -84.628906 13.171875 -96.929688 19.484375 -108.453125 C 25.804688 -119.972656 34.640625 -129.25 45.984375 -136.28125 C 57.328125 -143.3125 69.71875 -146.828125 83.15625 -146.828125 Z M 129.203125 -71.8125 C 129.203125 -84.976562 124.753906 -96.320312 115.859375 -105.84375 C 106.960938 -115.363281 95.972656 -120.125 82.890625 -120.125 C 69.984375 -120.125 59.015625 -115.34375 49.984375 -105.78125 C 40.953125 -96.21875 36.4375 -84.9375 36.4375 -71.9375 C 36.4375 -58.863281 40.992188 -47.539062 50.109375 -37.96875 C 59.234375 -28.40625 70.203125 -23.625 83.015625 -23.625 C 95.742188 -23.625 106.625 -28.40625 115.65625 -37.96875 C 124.6875 -47.539062 129.203125 -58.820312 129.203125 -71.8125 Z M 129.203125 -71.8125 "/></g></g></g><g fill="#797c7c" fill-opacity="1"><g transform="translate(1123.222576, 487.579376)"><g><path d="M 80.359375 -146.421875 C 92.992188 -146.421875 104.515625 -143.640625 114.921875 -138.078125 C 125.335938 -132.515625 133.035156 -125.019531 138.015625 -115.59375 C 139.078125 -113.71875 139.609375 -111.582031 139.609375 -109.1875 C 139.609375 -105.539062 138.296875 -102.40625 135.671875 -99.78125 C 133.046875 -97.15625 129.910156 -95.84375 126.265625 -95.84375 C 124.046875 -95.84375 121.753906 -96.550781 119.390625 -97.96875 C 117.035156 -99.394531 115.367188 -101.128906 114.390625 -103.171875 C 108.429688 -114.210938 97.039062 -119.734375 80.21875 -119.734375 C 76.394531 -119.734375 72.390625 -119.375 68.203125 -118.65625 C 64.023438 -117.945312 59.929688 -116.878906 55.921875 -115.453125 C 51.921875 -114.035156 48.628906 -112.035156 46.046875 -109.453125 C 43.460938 -106.867188 42.171875 -103.929688 42.171875 -100.640625 C 42.171875 -98.773438 42.769531 -97.0625 43.96875 -95.5 C 45.175781 -93.945312 46.976562 -92.632812 49.375 -91.5625 C 51.78125 -90.5 54.1875 -89.585938 56.59375 -88.828125 C 59 -88.066406 62.003906 -87.421875 65.609375 -86.890625 C 69.210938 -86.359375 72.144531 -85.957031 74.40625 -85.6875 C 76.675781 -85.425781 79.59375 -85.140625 83.15625 -84.828125 C 86.71875 -84.515625 88.988281 -84.3125 89.96875 -84.21875 C 95.925781 -83.601562 101.21875 -82.828125 105.84375 -81.890625 C 110.46875 -80.953125 115.316406 -79.503906 120.390625 -77.546875 C 125.460938 -75.585938 129.664062 -73.226562 133 -70.46875 C 136.34375 -67.71875 139.101562 -64.09375 141.28125 -59.59375 C 143.46875 -55.101562 144.5625 -49.96875 144.5625 -44.1875 C 144.5625 -37.957031 143.359375 -32.21875 140.953125 -26.96875 C 138.546875 -21.71875 135.316406 -17.3125 131.265625 -13.75 C 127.222656 -10.1875 122.460938 -7.179688 116.984375 -4.734375 C 111.515625 -2.285156 105.753906 -0.484375 99.703125 0.671875 C 93.648438 1.828125 87.378906 2.40625 80.890625 2.40625 C 66.117188 2.40625 52.8125 -0.53125 40.96875 -6.40625 C 29.132812 -12.28125 20.460938 -20.597656 14.953125 -31.359375 C 13.878906 -33.503906 13.34375 -35.597656 13.34375 -37.640625 C 13.34375 -41.285156 14.65625 -44.421875 17.28125 -47.046875 C 19.90625 -49.671875 23.039062 -50.984375 26.6875 -50.984375 C 29.007812 -50.984375 31.347656 -50.25 33.703125 -48.78125 C 36.054688 -47.3125 37.722656 -45.554688 38.703125 -43.515625 C 45.285156 -30.703125 59.300781 -24.296875 80.75 -24.296875 C 85.019531 -24.296875 89.203125 -24.648438 93.296875 -25.359375 C 97.390625 -26.066406 101.347656 -27.132812 105.171875 -28.5625 C 109.003906 -29.988281 112.078125 -32.054688 114.390625 -34.765625 C 116.703125 -37.484375 117.859375 -40.664062 117.859375 -44.3125 C 117.859375 -45.914062 117.546875 -47.363281 116.921875 -48.65625 C 116.296875 -49.945312 115.25 -51.015625 113.78125 -51.859375 C 112.320312 -52.703125 110.988281 -53.4375 109.78125 -54.0625 C 108.582031 -54.6875 106.734375 -55.195312 104.234375 -55.59375 C 101.742188 -55.988281 99.921875 -56.273438 98.765625 -56.453125 C 97.609375 -56.640625 95.5625 -56.863281 92.625 -57.125 C 89.695312 -57.394531 87.875 -57.570312 87.15625 -57.65625 C 68.644531 -59.613281 55.34375 -61.835938 47.25 -64.328125 C 28.476562 -69.941406 18.023438 -80 15.890625 -94.5 C 15.617188 -96.457031 15.484375 -98.503906 15.484375 -100.640625 C 15.484375 -108.296875 17.441406 -115.171875 21.359375 -121.265625 C 25.273438 -127.359375 30.410156 -132.160156 36.765625 -135.671875 C 43.128906 -139.191406 50.023438 -141.863281 57.453125 -143.6875 C 64.890625 -145.507812 72.523438 -146.421875 80.359375 -146.421875 Z M 80.359375 -146.421875 "/></g></g></g><g fill="#797c7c" fill-opacity="1"><g transform="translate(1281.124218, 487.579376)"><g><path d="M 77.6875 -145.75 C 89.34375 -145.75 100.175781 -142.832031 110.1875 -137 C 120.195312 -131.175781 128.179688 -123.210938 134.140625 -113.109375 C 140.109375 -103.015625 143.09375 -92.050781 143.09375 -80.21875 C 143.09375 -77.632812 142.957031 -75.097656 142.6875 -72.609375 C 142.332031 -69.316406 140.84375 -66.535156 138.21875 -64.265625 C 135.59375 -61.992188 132.632812 -60.859375 129.34375 -60.859375 L 36.03125 -60.734375 C 38.4375 -50.679688 43.707031 -42.023438 51.84375 -34.765625 C 59.988281 -27.515625 69.222656 -23.890625 79.546875 -23.890625 C 86.753906 -23.890625 93.425781 -25.644531 99.5625 -29.15625 C 105.707031 -32.675781 110.601562 -37.109375 114.25 -42.453125 C 115.320312 -44.140625 116.925781 -45.5625 119.0625 -46.71875 C 121.195312 -47.875 123.285156 -48.453125 125.328125 -48.453125 C 128.984375 -48.453125 132.125 -47.113281 134.75 -44.4375 C 137.375 -41.769531 138.6875 -38.613281 138.6875 -34.96875 C 138.6875 -32.125 137.882812 -29.585938 136.28125 -27.359375 C 130.320312 -18.640625 122.445312 -11.476562 112.65625 -5.875 C 102.863281 -0.269531 91.960938 2.53125 79.953125 2.53125 C 66.609375 2.53125 54.394531 -0.914062 43.3125 -7.8125 C 32.226562 -14.707031 23.570312 -23.894531 17.34375 -35.375 C 11.125 -46.851562 8.015625 -59.222656 8.015625 -72.484375 C 8.015625 -85.296875 11.082031 -97.304688 17.21875 -108.515625 C 23.351562 -119.722656 31.804688 -128.726562 42.578125 -135.53125 C 53.347656 -142.34375 65.050781 -145.75 77.6875 -145.75 Z M 115.59375 -87.5625 C 113.8125 -96.457031 109.382812 -103.929688 102.3125 -109.984375 C 95.238281 -116.035156 87.03125 -119.0625 77.6875 -119.0625 C 68.34375 -119.0625 59.890625 -115.988281 52.328125 -109.84375 C 44.765625 -103.707031 39.644531 -96.234375 36.96875 -87.421875 Z M 115.59375 -87.5625 "/></g></g></g></svg>