<svg xmlns="http://www.w3.org/2000/svg" xmlns:xlink="http://www.w3.org/1999/xlink" width="500" zoomAndPan="magnify" viewBox="0 0 375 374.999991" height="500" preserveAspectRatio="xMidYMid meet" version="1.0"><defs><clipPath id="56fc36bc52"><path d="M 10.332031 10.332031 L 364.332031 10.332031 L 364.332031 364.332031 L 10.332031 364.332031 Z M 10.332031 10.332031 " clip-rule="nonzero"/></clipPath></defs><g clip-path="url(#56fc36bc52)"><path fill="#000000" d="M 187.332031 10.332031 C 184.4375 10.332031 181.542969 10.402344 178.648438 10.546875 C 175.753906 10.6875 172.867188 10.902344 169.984375 11.183594 C 167.101562 11.46875 164.226562 11.824219 161.363281 12.25 C 158.496094 12.675781 155.644531 13.167969 152.800781 13.734375 C 149.960938 14.300781 147.136719 14.933594 144.324219 15.636719 C 141.515625 16.339844 138.726562 17.113281 135.953125 17.953125 C 133.179688 18.796875 130.429688 19.703125 127.703125 20.679688 C 124.976562 21.65625 122.273438 22.699219 119.597656 23.804688 C 116.921875 24.914062 114.273438 26.089844 111.65625 27.328125 C 109.039062 28.566406 106.449219 29.867188 103.894531 31.234375 C 101.339844 32.597656 98.820312 34.027344 96.335938 35.515625 C 93.851562 37.003906 91.40625 38.554688 88.996094 40.164062 C 86.589844 41.773438 84.222656 43.441406 81.894531 45.164062 C 79.566406 46.890625 77.285156 48.671875 75.046875 50.511719 C 72.804688 52.347656 70.613281 54.238281 68.46875 56.183594 C 66.320312 58.128906 64.222656 60.128906 62.175781 62.175781 C 60.128906 64.222656 58.128906 66.320312 56.183594 68.46875 C 54.238281 70.613281 52.347656 72.804688 50.511719 75.046875 C 48.671875 77.285156 46.890625 79.566406 45.164062 81.894531 C 43.441406 84.222656 41.773438 86.589844 40.164062 88.996094 C 38.554688 91.40625 37.003906 93.851562 35.515625 96.335938 C 34.027344 98.820312 32.597656 101.339844 31.234375 103.894531 C 29.867188 106.449219 28.566406 109.039062 27.328125 111.65625 C 26.089844 114.273438 24.914062 116.921875 23.804688 119.597656 C 22.699219 122.273438 21.65625 124.976562 20.679688 127.703125 C 19.703125 130.429688 18.796875 133.179688 17.953125 135.953125 C 17.113281 138.726562 16.339844 141.515625 15.636719 144.324219 C 14.933594 147.136719 14.300781 149.960938 13.734375 152.800781 C 13.167969 155.644531 12.675781 158.496094 12.25 161.363281 C 11.824219 164.226562 11.46875 167.101562 11.183594 169.984375 C 10.902344 172.867188 10.6875 175.753906 10.546875 178.648438 C 10.402344 181.542969 10.332031 184.4375 10.332031 187.332031 C 10.332031 190.230469 10.402344 193.125 10.546875 196.019531 C 10.6875 198.910156 10.902344 201.800781 11.183594 204.683594 C 11.46875 207.566406 11.824219 210.4375 12.25 213.304688 C 12.675781 216.167969 13.167969 219.023438 13.734375 221.863281 C 14.300781 224.707031 14.933594 227.53125 15.636719 230.339844 C 16.339844 233.152344 17.113281 235.941406 17.953125 238.714844 C 18.796875 241.484375 19.703125 244.234375 20.679688 246.960938 C 21.65625 249.691406 22.699219 252.390625 23.804688 255.066406 C 24.914062 257.746094 26.089844 260.390625 27.328125 263.011719 C 28.566406 265.628906 29.867188 268.214844 31.234375 270.769531 C 32.597656 273.324219 34.027344 275.84375 35.515625 278.328125 C 37.003906 280.8125 38.554688 283.261719 40.164062 285.667969 C 41.773438 288.078125 43.441406 290.445312 45.164062 292.773438 C 46.890625 295.097656 48.671875 297.382812 50.511719 299.621094 C 52.347656 301.859375 54.238281 304.050781 56.183594 306.199219 C 58.128906 308.34375 60.128906 310.441406 62.175781 312.492188 C 64.222656 314.539062 66.320312 316.535156 68.46875 318.480469 C 70.613281 320.425781 72.804688 322.316406 75.046875 324.15625 C 77.285156 325.992188 79.566406 327.773438 81.894531 329.5 C 84.222656 331.226562 86.589844 332.894531 88.996094 334.503906 C 91.40625 336.113281 93.851562 337.660156 96.335938 339.152344 C 98.820312 340.640625 101.339844 342.066406 103.894531 343.433594 C 106.449219 344.796875 109.039062 346.101562 111.65625 347.339844 C 114.273438 348.578125 116.921875 349.75 119.597656 350.859375 C 122.273438 351.96875 124.976562 353.011719 127.703125 353.988281 C 130.429688 354.960938 133.179688 355.871094 135.953125 356.710938 C 138.726562 357.550781 141.515625 358.324219 144.324219 359.027344 C 147.136719 359.734375 149.960938 360.367188 152.800781 360.933594 C 155.644531 361.496094 158.496094 361.992188 161.363281 362.417969 C 164.226562 362.84375 167.101562 363.195312 169.984375 363.480469 C 172.867188 363.765625 175.753906 363.976562 178.648438 364.121094 C 181.542969 364.261719 184.4375 364.332031 187.332031 364.332031 C 190.230469 364.332031 193.125 364.261719 196.019531 364.121094 C 198.910156 363.976562 201.800781 363.765625 204.683594 363.480469 C 207.566406 363.195312 210.4375 362.84375 213.304688 362.417969 C 216.167969 361.992188 219.023438 361.496094 221.863281 360.933594 C 224.707031 360.367188 227.53125 359.734375 230.339844 359.027344 C 233.152344 358.324219 235.941406 357.550781 238.714844 356.710938 C 241.484375 355.871094 244.234375 354.960938 246.960938 353.988281 C 249.691406 353.011719 252.390625 351.96875 255.066406 350.859375 C 257.746094 349.75 260.390625 348.578125 263.011719 347.339844 C 265.628906 346.101562 268.214844 344.796875 270.769531 343.433594 C 273.324219 342.066406 275.84375 340.640625 278.328125 339.152344 C 280.8125 337.660156 283.261719 336.113281 285.667969 334.503906 C 288.078125 332.894531 290.445312 331.226562 292.773438 329.5 C 295.097656 327.773438 297.382812 325.992188 299.621094 324.15625 C 301.859375 322.316406 304.050781 320.425781 306.199219 318.480469 C 308.34375 316.535156 310.441406 314.539062 312.492188 312.492188 C 314.539062 310.441406 316.535156 308.34375 318.480469 306.199219 C 320.425781 304.050781 322.316406 301.859375 324.15625 299.621094 C 325.992188 297.382812 327.773438 295.097656 329.5 292.773438 C 331.226562 290.445312 332.894531 288.078125 334.503906 285.667969 C 336.113281 283.261719 337.660156 280.8125 339.152344 278.328125 C 340.640625 275.84375 342.066406 273.324219 343.433594 270.769531 C 344.796875 268.214844 346.101562 265.628906 347.339844 263.011719 C 348.578125 260.390625 349.75 257.746094 350.859375 255.066406 C 351.96875 252.390625 353.011719 249.691406 353.988281 246.960938 C 354.960938 244.234375 355.871094 241.484375 356.710938 238.714844 C 357.550781 235.941406 358.324219 233.152344 359.027344 230.339844 C 359.734375 227.53125 360.367188 224.707031 360.933594 221.863281 C 361.496094 219.023438 361.992188 216.167969 362.417969 213.304688 C 362.84375 210.4375 363.195312 207.566406 363.480469 204.683594 C 363.765625 201.800781 363.976562 198.910156 364.121094 196.019531 C 364.261719 193.125 364.332031 190.230469 364.332031 187.332031 C 364.332031 184.4375 364.261719 181.542969 364.117188 178.648438 C 363.976562 175.753906 363.761719 172.867188 363.480469 169.984375 C 363.195312 167.101562 362.839844 164.226562 362.414062 161.363281 C 361.988281 158.496094 361.492188 155.644531 360.929688 152.804688 C 360.363281 149.960938 359.726562 147.136719 359.023438 144.328125 C 358.320312 141.519531 357.546875 138.726562 356.707031 135.957031 C 355.867188 133.183594 354.957031 130.433594 353.980469 127.707031 C 353.003906 124.980469 351.960938 122.277344 350.855469 119.601562 C 349.746094 116.925781 348.570312 114.277344 347.332031 111.660156 C 346.09375 109.042969 344.792969 106.453125 343.425781 103.898438 C 342.0625 101.347656 340.632812 98.828125 339.144531 96.34375 C 337.65625 93.855469 336.105469 91.410156 334.496094 89.003906 C 332.886719 86.59375 331.21875 84.226562 329.492188 81.898438 C 327.769531 79.574219 325.988281 77.289062 324.148438 75.050781 C 322.3125 72.8125 320.421875 70.621094 318.476562 68.472656 C 316.53125 66.328125 314.53125 64.230469 312.484375 62.183594 C 310.4375 60.132812 308.339844 58.136719 306.191406 56.191406 C 304.046875 54.246094 301.855469 52.355469 299.613281 50.515625 C 297.375 48.679688 295.09375 46.898438 292.765625 45.171875 C 290.441406 43.445312 288.070312 41.777344 285.664062 40.167969 C 283.253906 38.558594 280.808594 37.011719 278.324219 35.523438 C 275.839844 34.03125 273.320312 32.605469 270.765625 31.238281 C 268.210938 29.875 265.625 28.570312 263.007812 27.332031 C 260.386719 26.09375 257.742188 24.921875 255.066406 23.8125 C 252.386719 22.703125 249.6875 21.660156 246.960938 20.683594 C 244.230469 19.710938 241.484375 18.800781 238.710938 17.960938 C 235.9375 17.117188 233.148438 16.347656 230.339844 15.640625 C 227.527344 14.9375 224.703125 14.304688 221.863281 13.738281 C 219.023438 13.171875 216.167969 12.675781 213.304688 12.25 C 210.4375 11.828125 207.5625 11.472656 204.679688 11.1875 C 201.800781 10.902344 198.910156 10.691406 196.019531 10.546875 C 193.125 10.40625 190.230469 10.332031 187.332031 10.332031 Z M 142.695312 290.046875 L 76.707031 290.046875 L 76.707031 158.074219 C 76.707031 157.304688 76.78125 156.546875 76.933594 155.796875 C 77.082031 155.042969 77.304688 154.316406 77.597656 153.605469 C 77.890625 152.898438 78.25 152.226562 78.675781 151.589844 C 79.101562 150.953125 79.585938 150.363281 80.128906 149.820312 C 80.667969 149.277344 81.257812 148.796875 81.894531 148.371094 C 82.53125 147.945312 83.207031 147.585938 83.914062 147.289062 C 84.621094 146.996094 85.351562 146.777344 86.101562 146.625 C 86.855469 146.476562 87.613281 146.402344 88.378906 146.402344 L 131.023438 146.402344 C 131.792969 146.402344 132.550781 146.476562 133.300781 146.625 C 134.054688 146.777344 134.78125 146.996094 135.492188 147.289062 C 136.199219 147.585938 136.871094 147.945312 137.507812 148.371094 C 138.144531 148.796875 138.734375 149.277344 139.277344 149.820312 C 139.820312 150.363281 140.300781 150.953125 140.726562 151.589844 C 141.152344 152.226562 141.515625 152.898438 141.808594 153.605469 C 142.101562 154.316406 142.320312 155.042969 142.472656 155.796875 C 142.621094 156.546875 142.695312 157.304688 142.695312 158.074219 Z M 220.300781 290.046875 L 154.367188 290.046875 L 154.367188 96.289062 C 154.363281 95.523438 154.4375 94.765625 154.582031 94.015625 C 154.730469 93.265625 154.949219 92.535156 155.238281 91.828125 C 155.527344 91.121094 155.886719 90.449219 156.308594 89.8125 C 156.730469 89.175781 157.214844 88.585938 157.753906 88.042969 C 158.292969 87.5 158.878906 87.015625 159.515625 86.589844 C 160.148438 86.164062 160.820312 85.804688 161.527344 85.511719 C 162.230469 85.214844 162.960938 84.996094 163.710938 84.84375 C 164.460938 84.695312 165.21875 84.617188 165.984375 84.617188 L 208.683594 84.617188 C 209.449219 84.617188 210.207031 84.695312 210.957031 84.84375 C 211.707031 84.996094 212.433594 85.214844 213.140625 85.511719 C 213.847656 85.804688 214.515625 86.164062 215.152344 86.589844 C 215.785156 87.015625 216.375 87.5 216.914062 88.042969 C 217.453125 88.585938 217.933594 89.175781 218.359375 89.8125 C 218.78125 90.449219 219.136719 91.121094 219.429688 91.828125 C 219.71875 92.535156 219.9375 93.265625 220.082031 94.015625 C 220.230469 94.765625 220.300781 95.523438 220.300781 96.289062 Z M 297.957031 290.046875 L 231.96875 290.046875 L 231.96875 126.988281 C 231.972656 126.222656 232.046875 125.464844 232.195312 124.714844 C 232.347656 123.964844 232.570312 123.238281 232.863281 122.53125 C 233.15625 121.824219 233.515625 121.152344 233.941406 120.519531 C 234.367188 119.882812 234.851562 119.296875 235.394531 118.757812 C 235.9375 118.21875 236.527344 117.734375 237.164062 117.3125 C 237.800781 116.890625 238.472656 116.53125 239.179688 116.242188 C 239.886719 115.953125 240.617188 115.734375 241.367188 115.585938 C 242.117188 115.441406 242.875 115.367188 243.640625 115.371094 L 286.289062 115.371094 C 287.050781 115.367188 287.808594 115.441406 288.558594 115.585938 C 289.3125 115.734375 290.039062 115.953125 290.746094 116.242188 C 291.457031 116.53125 292.128906 116.890625 292.765625 117.3125 C 293.402344 117.734375 293.992188 118.21875 294.535156 118.757812 C 295.074219 119.296875 295.558594 119.882812 295.984375 120.519531 C 296.410156 121.152344 296.773438 121.824219 297.066406 122.53125 C 297.359375 123.238281 297.582031 123.964844 297.730469 124.714844 C 297.882812 125.464844 297.957031 126.222656 297.957031 126.988281 Z M 297.957031 290.046875 " fill-opacity="1" fill-rule="nonzero"/></g></svg>